<svg width="20" height="20" viewBox="0 0 20 20" fill="none" xmlns="http://www.w3.org/2000/svg">
<path d="M9.08337 15.5H10.9167V13.6667H9.08337V15.5ZM10 0.833374C4.94004 0.833374 0.833374 4.94004 0.833374 10C0.833374 15.06 4.94004 19.1667 10 19.1667C15.06 19.1667 19.1667 15.06 19.1667 10C19.1667 4.94004 15.06 0.833374 10 0.833374ZM10 17.3334C5.95754 17.3334 2.66671 14.0425 2.66671 10C2.66671 5.95754 5.95754 2.66671 10 2.66671C14.0425 2.66671 17.3334 5.95754 17.3334 10C17.3334 14.0425 14.0425 17.3334 10 17.3334ZM10 4.50004C7.97421 4.50004 6.33337 6.14087 6.33337 8.16671H8.16671C8.16671 7.15837 8.99171 6.33337 10 6.33337C11.0084 6.33337 11.8334 7.15837 11.8334 8.16671C11.8334 10 9.08337 9.77087 9.08337 12.75H10.9167C10.9167 10.6875 13.6667 10.4584 13.6667 8.16671C13.6667 6.14087 12.0259 4.50004 10 4.50004Z" fill="#7B7B7B"/>
</svg>
