<svg width="96" height="25" viewBox="0 0 96 25" fill="none" xmlns="http://www.w3.org/2000/svg">
<path d="M14.2188 11.967C14.2208 13.8107 15.3246 15.4748 17.0225 16.1936C16.6963 17.2548 16.2039 18.2576 15.5638 19.1648C14.7047 20.4516 13.8044 21.7081 12.3734 21.7314C10.9845 21.7636 10.5174 20.9134 8.92354 20.9134C7.31448 20.9134 6.81691 21.7081 5.48438 21.7636C4.12232 21.8146 3.08153 20.3917 2.1902 19.1182C0.410221 16.5185 -0.976003 11.7889 0.882728 8.57165C1.75535 7.00311 3.38711 6.00772 5.18101 5.94955C6.54396 5.9218 7.80937 6.87041 8.64791 6.87041C9.46944 6.87041 11.0346 5.73566 12.6482 5.90391C14.1821 5.95101 15.6036 6.71966 16.4829 7.97742C15.0946 8.83166 14.2403 10.3371 14.2188 11.967ZM11.5949 4.19372C10.8381 5.13509 9.69105 5.67709 8.48324 5.66407C8.40693 4.48392 8.80257 3.32175 9.58309 2.43339C10.374 1.53355 11.4746 0.96451 12.6661 0.839547C12.7592 2.0544 12.3749 3.25772 11.5949 4.19372ZM31.0673 18.5392H26.5185L25.4258 21.7654H23.4999L27.8089 9.83258H29.81L34.1181 21.7654H32.1591L31.0673 18.5392ZM26.9901 17.051H30.5957L28.8184 11.8157H28.7692L26.9901 17.051ZM43.4225 17.4143C43.4225 20.1169 41.9754 21.8549 39.7919 21.8549C38.6631 21.9137 37.6 21.3225 37.0543 20.3326H37.0131V24.6416H35.2278V13.0641H36.9568V14.5112H36.9899C37.5595 13.527 38.624 12.9357 39.7605 12.9719C41.9674 12.9737 43.4225 14.7188 43.4225 17.4143ZM41.5871 17.4143C41.5871 15.6513 40.6769 14.4942 39.2871 14.4942C37.9233 14.4942 37.0051 15.6755 37.0051 17.4143C37.0051 19.1674 37.9233 20.3407 39.2871 20.3407C40.6769 20.3407 41.5871 19.1925 41.5871 17.4143ZM52.9981 17.4143C52.9981 20.1169 51.551 21.8549 49.3674 21.8549C48.2387 21.9137 47.1756 21.3225 46.6299 20.3326H46.5887V24.6416H44.8025V13.0641H46.5315V14.5112H46.5646C47.1342 13.527 48.1987 12.9357 49.3352 12.9719C51.5421 12.9737 52.9981 14.7188 52.9981 17.4143ZM51.1626 17.4143C51.1626 15.6513 50.2525 14.4942 48.8636 14.4942C47.4998 14.4942 46.5816 15.6755 46.5816 17.4143C46.5816 19.1674 47.4998 20.3407 48.8636 20.3407C50.2525 20.3407 51.1626 19.1925 51.1626 17.4143ZM59.327 18.439C59.4585 19.6221 60.6085 20.3988 62.18 20.3988C63.6852 20.3988 64.768 19.6221 64.768 18.5544C64.768 17.6282 64.1148 17.0733 62.5683 16.693L61.0219 16.3216C58.8312 15.7918 57.8137 14.7671 57.8137 13.1053C57.8137 11.0461 59.608 9.63212 62.1558 9.63212C64.6777 9.63212 66.4057 11.0461 66.4639 13.1044H64.6607C64.5533 11.9142 63.568 11.1955 62.1298 11.1955C60.6908 11.1955 59.7064 11.9222 59.7064 12.9818C59.7064 13.8257 60.3346 14.3215 61.873 14.7L63.1876 15.024C65.6361 15.603 66.6527 16.5865 66.6527 18.3325C66.6527 20.5644 64.8745 21.9632 62.0457 21.9632C59.4003 21.9632 57.6132 20.5984 57.4969 18.439H59.327ZM70.508 11.0058V13.0641H72.1618V14.4799H70.508V19.2757C70.508 20.0212 70.8391 20.3675 71.5658 20.3675C71.7621 20.3648 71.9581 20.3514 72.1529 20.3273V21.7323C71.8261 21.7939 71.4938 21.8218 71.1613 21.8155C69.3992 21.8155 68.7128 21.1533 68.7128 19.4663V14.4799H67.4483V13.065H68.7128V11.0058H70.508ZM73.1212 17.4134C73.1212 14.6768 74.7333 12.9567 77.2464 12.9567C79.7684 12.9567 81.3736 14.6768 81.3736 17.4134C81.3736 20.159 79.7774 21.8701 77.2464 21.8701C74.7171 21.8728 73.1212 20.1599 73.1212 17.4134ZM79.5537 17.4134C79.5537 15.5368 78.6929 14.428 77.2464 14.428C75.8007 14.428 74.9408 15.5448 74.9408 17.4143C74.9408 19.2999 75.8007 20.3997 77.2464 20.3997C78.6946 20.3997 79.5537 19.299 79.5537 17.4143V17.4134ZM82.8461 13.0641H84.5489V14.5452H84.5904C84.828 13.5919 85.7017 12.936 86.6837 12.9737C86.8895 12.9728 87.0946 12.9952 87.2955 13.04V14.7099C87.036 14.6304 86.7651 14.5941 86.4933 14.6025C85.9678 14.581 85.4601 14.7902 85.1021 15.1749C84.745 15.5596 84.5733 16.0815 84.6327 16.6035V21.7645H82.8461V13.0641ZM95.5287 19.2086C95.2879 20.7881 93.7511 21.8719 91.7831 21.8719C89.2521 21.8719 87.6811 20.1769 87.6811 17.4564C87.6811 14.7269 89.2611 12.9576 91.7082 12.9576C94.1156 12.9576 95.6296 14.6105 95.6296 17.2487V17.8609H89.4848V17.9683C89.427 18.6158 89.6508 19.2569 90.0982 19.7283C90.5457 20.1998 91.1746 20.456 91.8238 20.432C92.6902 20.513 93.507 20.0156 93.8333 19.2086H95.5287ZM89.4921 16.6125H93.8414C93.8739 16.0305 93.6616 15.4614 93.2573 15.0423C92.8521 14.6231 92.2908 14.392 91.7074 14.4047C90.4912 14.3977 89.4994 15.378 89.4921 16.5946V16.6125ZM25.722 3.27375H26.4889C27.0165 3.33908 27.4972 2.96452 27.5628 2.43697C27.5655 2.41012 27.5682 2.38596 27.5691 2.35911C27.5691 1.83022 27.1718 1.48836 26.497 1.48836C25.9382 1.4108 25.422 1.80039 25.3434 2.35911L25.3408 2.38596H24.4978C24.5274 1.88828 24.7623 1.42524 25.1464 1.10744C25.5306 0.789644 26.0294 0.645619 26.5238 0.709785C27.6523 0.709785 28.4479 1.34249 28.4479 2.25083C28.4534 2.87901 28.0193 3.42564 27.4062 3.56281V3.62993C28.1401 3.66214 28.7101 4.28232 28.6815 5.01615C28.6287 5.52829 28.3718 5.99763 27.9689 6.31817C27.5659 6.63879 27.0509 6.78361 26.5399 6.72007C26.0391 6.78849 25.5315 6.65506 25.1292 6.349C24.7269 6.04302 24.4626 5.58955 24.3948 5.08864C24.3922 5.06626 24.3886 5.04568 24.3868 5.02331H25.2414C25.2924 5.57189 25.7972 5.92538 26.5399 5.92538C27.2827 5.92538 27.7678 5.52804 27.7678 4.96782C27.7678 4.40045 27.3105 4.04964 26.5122 4.04964H25.7211V3.27106H25.722V3.27375ZM29.6525 5.3589C29.6525 4.57943 30.2333 4.13018 31.2624 4.06754L32.4348 4.00042V3.62724C32.4348 3.16994 32.1341 2.91131 31.5488 2.91131C31.0727 2.91131 30.7425 3.08761 30.6467 3.39367H29.8198C29.9075 2.65089 30.6073 2.17297 31.5891 2.17297C32.6737 2.17297 33.2858 2.71264 33.2858 3.62724V6.58315H32.4634V5.9746H32.3963C32.1174 6.41897 31.621 6.67882 31.0969 6.65474C30.7291 6.69314 30.3623 6.5742 30.0871 6.32728C29.8119 6.08045 29.654 5.72858 29.6525 5.3589ZM32.4339 4.9902V4.62865L31.377 4.69577C30.781 4.73604 30.5116 4.9374 30.5116 5.32042C30.5116 5.70971 30.8499 5.93612 31.3143 5.93612C31.5891 5.96362 31.8635 5.87852 32.0744 5.70027C32.2855 5.52194 32.4151 5.26575 32.4339 4.9902ZM35.5508 2.97574V6.58404H34.6971V2.25709H37.5465V2.97574H35.5508ZM42.7209 4.41835C42.7209 5.79383 42.0256 6.65563 40.9329 6.65563C40.3853 6.69371 39.8655 6.4101 39.6012 5.92896H39.5341V8.02306H38.6804V2.25709H39.5028V2.97216H39.5663C39.8348 2.47545 40.361 2.17208 40.9257 2.1846C42.0265 2.18371 42.7209 3.04286 42.7209 4.41835ZM41.843 4.41835C41.843 3.50464 41.4099 2.95247 40.6877 2.95247C39.969 2.95247 39.5198 3.51627 39.5198 4.42193C39.5198 5.324 39.969 5.8878 40.685 5.8878C41.4099 5.8878 41.843 5.33563 41.843 4.41835ZM43.8583 8.13224V7.39841C43.9505 7.41005 44.0436 7.41542 44.1376 7.41452C44.5142 7.44218 44.8513 7.18184 44.9197 6.81045L44.9833 6.60015L43.4172 2.25709H44.347L45.4325 5.6936H45.4996L46.5807 2.25709H47.4854L45.8728 6.76213C45.5032 7.81544 45.0933 8.15283 44.2118 8.15283C44.0938 8.15128 43.9758 8.14477 43.8583 8.13314V8.13224ZM48.1513 5.35532H49.0014C49.0847 5.73656 49.4426 5.93523 49.9429 5.93523C50.512 5.93523 50.8611 5.68465 50.8611 5.29536C50.8611 4.87833 50.5478 4.67966 49.9429 4.67966H49.2959V4.01653H49.9321C50.4485 4.01653 50.7116 3.81786 50.7116 3.45721C50.7116 3.13951 50.4566 2.89788 49.9321 2.89788C49.4551 2.89788 49.1052 3.10014 49.0506 3.44289H48.2282C48.3565 2.62624 49.1151 2.06273 49.9339 2.17566C50.9631 2.17566 51.551 2.64104 51.551 3.3713C51.5611 3.79101 51.2759 4.16053 50.8673 4.25726V4.32438C51.356 4.38702 51.7193 4.80584 51.7139 5.29805C51.7139 6.12047 51.0141 6.66548 49.9447 6.66548C48.9987 6.6619 48.2309 6.22965 48.1513 5.35532ZM52.9417 6.58315V2.2562H53.7883V5.23182H53.8554L55.8502 2.2553H56.6968V6.58315H55.8502V3.59055H55.7867L53.7892 6.58315H52.9417ZM61.3593 2.97574H59.9973V6.58404H59.1426V2.97574H57.7805V2.25709H61.3602V2.97574H61.3593ZM65.9592 5.41439C65.719 6.23031 64.929 6.75725 64.0834 6.66548C63.5066 6.68053 62.9523 6.44142 62.5675 6.01154C62.1827 5.58157 62.0063 5.00419 62.0851 4.43266C62.0085 3.85935 62.1845 3.28099 62.5674 2.84753C62.9502 2.41397 63.5024 2.16789 64.0808 2.17297C65.2853 2.17297 66.012 2.99543 66.012 4.35481V4.65281H62.9567V4.70114C62.9292 5.02225 63.0387 5.34011 63.2583 5.57612C63.4779 5.81205 63.7871 5.94418 64.1094 5.9397C64.5273 5.98982 64.9327 5.78309 65.1385 5.41528L65.9592 5.41439ZM62.9567 4.02011H65.1412C65.1627 3.72666 65.0595 3.43776 64.857 3.22428C64.6545 3.01089 64.3714 2.89268 64.0772 2.89878C63.7787 2.89487 63.4913 3.01178 63.2803 3.2229C63.0693 3.4341 62.9526 3.72161 62.9567 4.02011ZM69.58 2.2562H71.5309C72.3775 2.2562 72.8742 2.6849 72.8742 3.35698C72.8769 3.79548 72.5726 4.17761 72.143 4.26979V4.3378C72.6677 4.37148 73.0742 4.80991 73.0684 5.33563C73.0684 6.09094 72.5001 6.58315 71.5515 6.58315H69.5809V2.2562H69.58ZM70.4266 2.9122V4.03264H71.2732C71.7896 4.03264 72.0365 3.83397 72.0365 3.46795C72.0365 3.13056 71.8218 2.9122 71.368 2.9122H70.4266ZM70.4266 4.65997V5.92717H71.4396C71.9444 5.92717 72.2146 5.70344 72.2146 5.29447C72.2146 4.86133 71.9086 4.65908 71.3331 4.65908H70.4266V4.65997Z" fill="white"/>
</svg>
