<svg width="21" height="16" viewBox="0 0 21 16" fill="none" xmlns="http://www.w3.org/2000/svg">
<path d="M20.25 6.59385V7.15635C20.25 7.62235 19.8722 8.0001 19.4062 8.0001H19.125L18.207 14.4262C18.0882 15.2576 17.3762 15.8751 16.5364 15.8751H3.71355C2.87378 15.8751 2.16179 15.2576 2.043 14.4262L1.125 8.0001H0.84375C0.377754 8.0001 0 7.62235 0 7.15635V6.59385C0 6.12785 0.377754 5.7501 0.84375 5.7501H3.21121L6.96519 0.588424C7.33064 0.0859707 8.03419 -0.0251583 8.53671 0.340291C9.0392 0.70574 9.15029 1.40932 8.78484 1.91181L5.99333 5.7501H14.2567L11.4652 1.91178C11.0997 1.40932 11.2108 0.705705 11.7133 0.340256C12.2157 -0.0251934 12.9194 0.0859004 13.2848 0.588389L17.0388 5.7501H19.4062C19.8722 5.7501 20.25 6.12785 20.25 6.59385ZM10.9688 12.7813V8.84385C10.9688 8.37785 10.591 8.0001 10.125 8.0001C9.659 8.0001 9.28125 8.37785 9.28125 8.84385V12.7813C9.28125 13.2473 9.659 13.6251 10.125 13.6251C10.591 13.6251 10.9688 13.2473 10.9688 12.7813ZM14.9062 12.7813V8.84385C14.9062 8.37785 14.5285 8.0001 14.0625 8.0001C13.5965 8.0001 13.2188 8.37785 13.2188 8.84385V12.7813C13.2188 13.2473 13.5965 13.6251 14.0625 13.6251C14.5285 13.6251 14.9062 13.2473 14.9062 12.7813ZM7.03125 12.7813V8.84385C7.03125 8.37785 6.6535 8.0001 6.1875 8.0001C5.7215 8.0001 5.34375 8.37785 5.34375 8.84385V12.7813C5.34375 13.2473 5.7215 13.6251 6.1875 13.6251C6.6535 13.6251 7.03125 13.2473 7.03125 12.7813Z" fill="white"/>
</svg>
