<svg width="16" height="16" viewBox="0 0 16 16" fill="none" xmlns="http://www.w3.org/2000/svg">
<path d="M15.6873 15.2068C15.5438 14.168 15.1422 12.3996 14.7991 12.098C14.7788 12.0801 10.3271 10.0729 10.3271 10.0729C10.8452 9.43408 11.1979 8.68733 11.3457 8.14088C11.7318 7.88166 11.8895 7.03791 11.7791 6.45816L15.108 6.12978C15.2332 6.11749 15.3312 6.01656 15.3399 5.89105C15.3488 5.76554 15.2657 5.65198 15.1434 5.62244L11.8727 4.82872C11.8524 4.24197 11.6982 2.57206 10.6316 1.47848C9.99841 0.829235 9.15739 0.5 8.13211 0.5C7.10599 0.5 6.27368 0.829747 5.65841 1.48002C4.62819 2.56916 4.51975 4.22865 4.51599 4.82565L0.910802 5.62124C0.786827 5.64857 0.701273 5.76212 0.708958 5.88883C0.716642 6.01554 0.815344 6.11783 0.941711 6.12995L4.55561 6.47831C4.46459 7.104 4.66866 7.92213 5.00062 8.14549C5.10411 8.53057 5.37853 9.37603 5.9453 10.1132C5.9453 10.1132 1.4178 12.0762 1.39526 12.0982C1.07644 12.4086 0.666437 14.3658 0.504723 15.1926C0.490037 15.2683 0.510017 15.3465 0.558855 15.4061C0.607865 15.4657 0.680952 15.5 0.757967 15.5H15.4316C15.5063 15.5 15.5771 15.4677 15.6261 15.4115C15.6751 15.3554 15.6973 15.2807 15.6873 15.2068ZM12.1746 13.5309H12.8334V15.1088H3.4675V13.5309H4.18812C4.2689 13.5309 4.3343 13.4653 4.3343 13.3847V11.3716L5.34215 10.936V13.3847C5.34215 13.4655 5.40756 13.5309 5.48833 13.5309H10.8748C10.9555 13.5309 11.0209 13.4653 11.0209 13.3847V10.9331L12.0288 11.3668V13.3847C12.0286 13.4655 12.0939 13.5309 12.1746 13.5309ZM6.50267 10.4291C6.99243 10.867 7.54178 11.0893 8.14014 11.0893C8.69137 11.0893 9.24653 10.8468 9.76138 10.3854C9.77334 10.3931 10.101 10.5372 10.101 10.5372C9.99157 11.1559 9.43556 11.6288 8.76651 11.6288H7.46869C6.78085 11.6288 6.24858 11.1904 6.15824 10.5833C6.1579 10.5835 6.49123 10.4365 6.50267 10.4291ZM5.47245 7.90779C5.45093 7.81796 5.38297 7.74641 5.29417 7.72046C5.27948 7.71602 5.22416 7.67128 5.16678 7.52698C5.02419 7.16837 5.15739 6.4001 5.17617 6.35536C6.31142 6.41974 10.0307 6.41803 11.1509 6.35041C11.1728 6.39566 11.3198 7.11134 11.1898 7.48378C11.1306 7.65403 11.0698 7.70936 11.0536 7.71533C10.9629 7.74129 10.8937 7.81455 10.8729 7.90642C10.7499 8.44894 9.75489 10.7973 8.14014 10.7973C6.3968 10.7971 5.54502 8.21004 5.47245 7.90779ZM4.90004 13.7442C4.62597 13.7442 4.40312 13.9672 4.40312 14.2413C4.40312 14.5154 4.62597 14.7384 4.90004 14.7384C5.17412 14.7384 5.39697 14.5154 5.39697 14.2413C5.39697 13.9672 5.17412 13.7442 4.90004 13.7442ZM11.5245 13.7442C11.2506 13.7442 11.0278 13.9672 11.0278 14.2413C11.0278 14.5154 11.2506 14.7384 11.5245 14.7384C11.7986 14.7384 12.0215 14.5154 12.0215 14.2413C12.0215 13.9672 11.7986 13.7442 11.5245 13.7442Z" fill="#043E44"/>
</svg>
