<svg width="164" height="48" viewBox="0 0 164 48" fill="none" xmlns="http://www.w3.org/2000/svg">
<rect width="164" height="48" rx="5" fill="#209041"/>
<g clip-path="url(#clip0_11307_48735)">
<path d="M33.75 22.5938V23.1563C33.75 23.6223 33.3722 24.0001 32.9062 24.0001H32.625L31.707 30.4262C31.5882 31.2576 30.8762 31.8751 30.0364 31.8751H17.2136C16.3738 31.8751 15.6618 31.2576 15.543 30.4262L14.625 24.0001H14.3438C13.8778 24.0001 13.5 23.6223 13.5 23.1563V22.5938C13.5 22.1279 13.8778 21.7501 14.3438 21.7501H16.7112L20.4652 16.5884C20.8306 16.086 21.5342 15.9748 22.0367 16.3403C22.5392 16.7057 22.6503 17.4093 22.2848 17.9118L19.4933 21.7501H27.7567L24.9652 17.9118C24.5997 17.4093 24.7108 16.7057 25.2133 16.3403C25.7157 15.9748 26.4194 16.0859 26.7848 16.5884L30.5388 21.7501H32.9062C33.3722 21.7501 33.75 22.1279 33.75 22.5938ZM24.4688 28.7814V24.8439C24.4688 24.3779 24.091 24.0001 23.625 24.0001C23.159 24.0001 22.7812 24.3779 22.7812 24.8439V28.7814C22.7812 29.2473 23.159 29.6251 23.625 29.6251C24.091 29.6251 24.4688 29.2473 24.4688 28.7814ZM28.4062 28.7814V24.8439C28.4062 24.3779 28.0285 24.0001 27.5625 24.0001C27.0965 24.0001 26.7188 24.3779 26.7188 24.8439V28.7814C26.7188 29.2473 27.0965 29.6251 27.5625 29.6251C28.0285 29.6251 28.4062 29.2473 28.4062 28.7814ZM20.5312 28.7814V24.8439C20.5312 24.3779 20.1535 24.0001 19.6875 24.0001C19.2215 24.0001 18.8438 24.3779 18.8438 24.8439V28.7814C18.8438 29.2473 19.2215 29.6251 19.6875 29.6251C20.1535 29.6251 20.5312 29.2473 20.5312 28.7814Z" fill="white"/>
</g>
<path d="M45.1398 29C45.0225 29 44.9265 28.9627 44.8518 28.888C44.7878 28.8133 44.7558 28.7173 44.7558 28.6V18.2C44.7558 18.0827 44.7931 17.9867 44.8678 17.912C44.9425 17.8373 45.0385 17.8 45.1558 17.8H46.5958C46.7131 17.8 46.8038 17.8373 46.8678 17.912C46.9425 17.9867 46.9798 18.0827 46.9798 18.2V25.544L52.2438 18.056C52.3611 17.8853 52.5158 17.8 52.7078 17.8H54.0358C54.1531 17.8 54.2438 17.8373 54.3078 17.912C54.3825 17.9867 54.4198 18.0827 54.4198 18.2V28.616C54.4198 28.7227 54.3825 28.8133 54.3078 28.888C54.2438 28.9627 54.1531 29 54.0358 29H52.5958C52.4785 29 52.3825 28.968 52.3078 28.904C52.2331 28.8293 52.1958 28.7333 52.1958 28.616V21.416L46.9478 28.744C46.8838 28.8293 46.8198 28.8933 46.7558 28.936C46.6918 28.9787 46.6011 29 46.4838 29H45.1398ZM57.1041 29C56.9974 29 56.9067 28.9627 56.8321 28.888C56.7574 28.8133 56.7201 28.7227 56.7201 28.616V21.064C56.7201 20.9573 56.7574 20.8667 56.8321 20.792C56.9067 20.7173 56.9974 20.68 57.1041 20.68H58.4321C58.5494 20.68 58.6401 20.7173 58.7041 20.792C58.7787 20.856 58.8161 20.9467 58.8161 21.064V23.928H62.4321V21.064C62.4321 20.9467 62.4694 20.856 62.5441 20.792C62.6187 20.7173 62.7094 20.68 62.8161 20.68H64.1441C64.2614 20.68 64.3521 20.7173 64.4161 20.792C64.4907 20.856 64.5281 20.9467 64.5281 21.064V28.616C64.5281 28.7227 64.4907 28.8133 64.4161 28.888C64.3521 28.9627 64.2614 29 64.1441 29H62.8161C62.7094 29 62.6187 28.9627 62.5441 28.888C62.4694 28.8133 62.4321 28.7227 62.4321 28.616V25.608H58.8161V28.616C58.8161 28.7227 58.7787 28.8133 58.7041 28.888C58.6401 28.9627 58.5494 29 58.4321 29H57.1041ZM67.0728 29C66.9661 29 66.8755 28.9627 66.8008 28.888C66.7261 28.8133 66.6888 28.7227 66.6888 28.616V21.064C66.6888 20.9573 66.7261 20.8667 66.8008 20.792C66.8755 20.7173 66.9661 20.68 67.0728 20.68H72.1448C72.2621 20.68 72.3528 20.7173 72.4168 20.792C72.4915 20.856 72.5288 20.9467 72.5288 21.064V21.976C72.5288 22.0933 72.4915 22.1893 72.4168 22.264C72.3421 22.3387 72.2515 22.376 72.1448 22.376H68.7848V28.616C68.7848 28.7227 68.7475 28.8133 68.6728 28.888C68.6088 28.9627 68.5181 29 68.4008 29H67.0728ZM74.2138 32.04C74.1071 32.04 74.0165 32.0027 73.9418 31.928C73.8671 31.864 73.8298 31.7733 73.8298 31.656V21.064C73.8298 20.9467 73.8671 20.856 73.9418 20.792C74.0165 20.7173 74.1071 20.68 74.2138 20.68H75.4778C75.5951 20.68 75.6858 20.7173 75.7498 20.792C75.8245 20.856 75.8618 20.9467 75.8618 21.064V21.704C76.4591 20.9147 77.3125 20.52 78.4218 20.52C79.4991 20.52 80.3258 20.8613 80.9018 21.544C81.4778 22.216 81.7871 23.128 81.8298 24.28C81.8405 24.408 81.8458 24.5947 81.8458 24.84C81.8458 25.096 81.8405 25.288 81.8298 25.416C81.7871 26.536 81.4778 27.4427 80.9018 28.136C80.3258 28.8187 79.4991 29.16 78.4218 29.16C77.3445 29.16 76.5231 28.7813 75.9578 28.024V31.656C75.9578 31.7733 75.9205 31.864 75.8458 31.928C75.7818 32.0027 75.6911 32.04 75.5738 32.04H74.2138ZM77.8298 27.448C78.9818 27.448 79.5951 26.7387 79.6698 25.32C79.6805 25.2133 79.6858 25.0533 79.6858 24.84C79.6858 24.6267 79.6805 24.4667 79.6698 24.36C79.5951 22.9413 78.9818 22.232 77.8298 22.232C77.2111 22.232 76.7525 22.4293 76.4538 22.824C76.1551 23.2187 75.9898 23.704 75.9578 24.28L75.9418 24.888L75.9578 25.512C75.9791 26.0453 76.1445 26.504 76.4538 26.888C76.7738 27.2613 77.2325 27.448 77.8298 27.448ZM91.2259 20.68C91.3219 20.68 91.4073 20.7173 91.4819 20.792C91.5566 20.856 91.5939 20.936 91.5939 21.032V28.616C91.5939 28.7227 91.5566 28.8133 91.4819 28.888C91.4073 28.9627 91.3166 29 91.2099 29H89.8819C89.7753 29 89.6846 28.9627 89.6099 28.888C89.5353 28.8133 89.4979 28.7227 89.4979 28.616V23.48L85.6579 28.744C85.5619 28.9147 85.4179 29 85.2259 29H84.0099C83.9139 29 83.8286 28.968 83.7539 28.904C83.6793 28.8293 83.6419 28.7387 83.6419 28.632V21.064C83.6419 20.9573 83.6793 20.8667 83.7539 20.792C83.8286 20.7173 83.9193 20.68 84.0259 20.68H85.3539C85.4713 20.68 85.5619 20.7173 85.6259 20.792C85.7006 20.856 85.7379 20.9467 85.7379 21.064V26.216L89.5779 20.936C89.6953 20.7653 89.8393 20.68 90.0099 20.68H91.2259ZM93.2907 30.76C93.184 30.76 93.0934 30.7227 93.0187 30.648C92.944 30.584 92.9067 30.4933 92.9067 30.376V27.688C92.9067 27.5813 92.944 27.4907 93.0187 27.416C93.0934 27.3413 93.184 27.304 93.2907 27.304H93.4187C93.8347 27.304 94.1387 26.9733 94.3307 26.312C94.5227 25.6507 94.6187 24.6213 94.6187 23.224V21.064C94.6187 20.9467 94.656 20.856 94.7307 20.792C94.8054 20.7173 94.896 20.68 95.0027 20.68H100.699C100.816 20.68 100.907 20.7173 100.971 20.792C101.045 20.856 101.083 20.9467 101.083 21.064V27.288H101.803C101.92 27.288 102.011 27.3253 102.075 27.4C102.149 27.464 102.187 27.5547 102.187 27.672V30.376C102.187 30.4933 102.149 30.584 102.075 30.648C102.011 30.7227 101.92 30.76 101.803 30.76H100.491C100.373 30.76 100.277 30.7227 100.203 30.648C100.128 30.5733 100.091 30.4827 100.091 30.376V29H95.0027V30.376C95.0027 30.4933 94.9654 30.584 94.8907 30.648C94.8267 30.7227 94.736 30.76 94.6187 30.76H93.2907ZM99.0027 27.288V22.376H96.6347V23.448C96.6347 25.2827 96.384 26.568 95.8827 27.304L99.0027 27.288ZM111.242 20.68C111.338 20.68 111.423 20.7173 111.498 20.792C111.572 20.856 111.61 20.936 111.61 21.032V28.616C111.61 28.7227 111.572 28.8133 111.498 28.888C111.423 28.9627 111.332 29 111.226 29H109.898C109.791 29 109.7 28.9627 109.626 28.888C109.551 28.8133 109.514 28.7227 109.514 28.616V23.48L105.674 28.744C105.578 28.9147 105.434 29 105.242 29H104.026C103.93 29 103.844 28.968 103.77 28.904C103.695 28.8293 103.658 28.7387 103.658 28.632V21.064C103.658 20.9573 103.695 20.8667 103.77 20.792C103.844 20.7173 103.935 20.68 104.042 20.68H105.37C105.487 20.68 105.578 20.7173 105.642 20.792C105.716 20.856 105.754 20.9467 105.754 21.064V26.216L109.594 20.936C109.711 20.7653 109.855 20.68 110.026 20.68H111.242ZM117.21 29.16C116.026 29.16 115.082 28.8187 114.378 28.136C113.685 27.4427 113.317 26.472 113.274 25.224L113.258 24.824L113.274 24.424C113.328 23.208 113.701 22.2533 114.394 21.56C115.098 20.8667 116.037 20.52 117.21 20.52C118.469 20.52 119.44 20.904 120.122 21.672C120.816 22.44 121.162 23.464 121.162 24.744V25.08C121.162 25.1867 121.125 25.2773 121.05 25.352C120.976 25.4267 120.88 25.464 120.762 25.464H115.45V25.592C115.472 26.1787 115.632 26.6747 115.93 27.08C116.24 27.4747 116.661 27.672 117.194 27.672C117.824 27.672 118.33 27.4267 118.714 26.936C118.81 26.8187 118.885 26.744 118.938 26.712C119.002 26.68 119.093 26.664 119.21 26.664H120.586C120.682 26.664 120.762 26.696 120.826 26.76C120.901 26.8133 120.938 26.8827 120.938 26.968C120.938 27.224 120.784 27.528 120.474 27.88C120.176 28.2213 119.744 28.52 119.178 28.776C118.613 29.032 117.957 29.16 117.21 29.16ZM118.986 24.12V24.072C118.986 23.4427 118.826 22.936 118.506 22.552C118.197 22.168 117.765 21.976 117.21 21.976C116.656 21.976 116.224 22.168 115.914 22.552C115.605 22.936 115.45 23.4427 115.45 24.072V24.12H118.986ZM123.245 29C123.138 29 123.047 28.9627 122.973 28.888C122.898 28.8133 122.861 28.7227 122.861 28.616V21.064C122.861 20.9573 122.898 20.8667 122.973 20.792C123.047 20.7173 123.138 20.68 123.245 20.68H124.573C124.69 20.68 124.781 20.7173 124.845 20.792C124.919 20.856 124.957 20.9467 124.957 21.064V23.928H128.573V21.064C128.573 20.9467 128.61 20.856 128.685 20.792C128.759 20.7173 128.85 20.68 128.957 20.68H130.285C130.402 20.68 130.493 20.7173 130.557 20.792C130.631 20.856 130.669 20.9467 130.669 21.064V28.616C130.669 28.7227 130.631 28.8133 130.557 28.888C130.493 28.9627 130.402 29 130.285 29H128.957C128.85 29 128.759 28.9627 128.685 28.888C128.61 28.8133 128.573 28.7227 128.573 28.616V25.608H124.957V28.616C124.957 28.7227 124.919 28.8133 124.845 28.888C124.781 28.9627 124.69 29 124.573 29H123.245ZM135.373 29C135.267 29 135.176 28.9627 135.101 28.888C135.027 28.8133 134.989 28.7227 134.989 28.616V22.376H132.381C132.275 22.376 132.184 22.3387 132.109 22.264C132.035 22.1893 131.997 22.0933 131.997 21.976V21.064C131.997 20.9467 132.035 20.856 132.109 20.792C132.184 20.7173 132.275 20.68 132.381 20.68H139.645C139.763 20.68 139.859 20.7173 139.933 20.792C140.008 20.8667 140.045 20.9573 140.045 21.064V21.976C140.045 22.0827 140.008 22.1787 139.933 22.264C139.859 22.3387 139.763 22.376 139.645 22.376H137.053V28.616C137.053 28.7227 137.016 28.8133 136.941 28.888C136.877 28.9627 136.787 29 136.669 29H135.373ZM141.698 29C141.591 29 141.5 28.9627 141.426 28.888C141.351 28.8133 141.314 28.7227 141.314 28.616V21.064C141.314 20.9573 141.351 20.8667 141.426 20.792C141.5 20.7173 141.591 20.68 141.698 20.68H143.042C143.148 20.68 143.239 20.7173 143.314 20.792C143.388 20.8667 143.426 20.9573 143.426 21.064V23.32H144.978C146.044 23.32 146.855 23.576 147.41 24.088C147.964 24.5893 148.242 25.2933 148.242 26.2C148.242 27.128 147.954 27.8267 147.378 28.296C146.802 28.7653 145.959 29 144.85 29H141.698ZM149.682 29C149.575 29 149.484 28.9627 149.41 28.888C149.335 28.8133 149.298 28.7227 149.298 28.616V21.064C149.298 20.9573 149.335 20.8667 149.41 20.792C149.484 20.7173 149.575 20.68 149.682 20.68H151.01C151.127 20.68 151.218 20.7173 151.282 20.792C151.356 20.856 151.394 20.9467 151.394 21.064V28.616C151.394 28.7227 151.356 28.8133 151.282 28.888C151.218 28.9627 151.127 29 151.01 29H149.682ZM144.802 27.48C145.335 27.48 145.724 27.384 145.97 27.192C146.215 26.9893 146.338 26.6587 146.338 26.2C146.338 25.7413 146.215 25.4 145.97 25.176C145.724 24.952 145.335 24.84 144.802 24.84H143.394V27.48H144.802Z" fill="white"/>
<defs>
<clipPath id="clip0_11307_48735">
<rect width="20.25" height="18" fill="white" transform="translate(13.5 15)"/>
</clipPath>
</defs>
</svg>
