<svg width="56" height="36" viewBox="0 0 56 36" fill="none" xmlns="http://www.w3.org/2000/svg">
<path d="M0 18C0 8.05888 8.05887 0 18 0H56V36H18C8.05888 36 0 27.9411 0 18Z" fill="#209041"/>
<g clip-path="url(#clip0_7744_164605)">
<path d="M40.25 16.5938V17.1563C40.25 17.6223 39.8722 18.0001 39.4062 18.0001H39.125L38.207 24.4262C38.0882 25.2576 37.3762 25.8751 36.5364 25.8751H23.7136C22.8738 25.8751 22.1618 25.2576 22.043 24.4262L21.125 18.0001H20.8438C20.3778 18.0001 20 17.6223 20 17.1563V16.5938C20 16.1279 20.3778 15.7501 20.8438 15.7501H23.2112L26.9652 10.5884C27.3306 10.086 28.0342 9.97484 28.5367 10.3403C29.0392 10.7057 29.1503 11.4093 28.7848 11.9118L25.9933 15.7501H34.2567L31.4652 11.9118C31.0997 11.4093 31.2108 10.7057 31.7133 10.3403C32.2157 9.97481 32.9194 10.0859 33.2848 10.5884L37.0388 15.7501H39.4062C39.8722 15.7501 40.25 16.1279 40.25 16.5938ZM30.9688 22.7814V18.8439C30.9688 18.3779 30.591 18.0001 30.125 18.0001C29.659 18.0001 29.2812 18.3779 29.2812 18.8439V22.7814C29.2812 23.2473 29.659 23.6251 30.125 23.6251C30.591 23.6251 30.9688 23.2473 30.9688 22.7814ZM34.9062 22.7814V18.8439C34.9062 18.3779 34.5285 18.0001 34.0625 18.0001C33.5965 18.0001 33.2188 18.3779 33.2188 18.8439V22.7814C33.2188 23.2473 33.5965 23.6251 34.0625 23.6251C34.5285 23.6251 34.9062 23.2473 34.9062 22.7814ZM27.0312 22.7814V18.8439C27.0312 18.3779 26.6535 18.0001 26.1875 18.0001C25.7215 18.0001 25.3438 18.3779 25.3438 18.8439V22.7814C25.3438 23.2473 25.7215 23.6251 26.1875 23.6251C26.6535 23.6251 27.0312 23.2473 27.0312 22.7814Z" fill="white"/>
</g>
<defs>
<clipPath id="clip0_7744_164605">
<rect width="20.25" height="18" fill="white" transform="translate(20 9)"/>
</clipPath>
</defs>
</svg>
