<svg width="37" height="18" viewBox="0 0 37 18" fill="none" xmlns="http://www.w3.org/2000/svg">
<path d="M1.428 14C1.33467 14 1.25533 13.9673 1.19 13.902C1.12467 13.8367 1.092 13.7573 1.092 13.664V4.536C1.092 4.43333 1.12467 4.354 1.19 4.298C1.25533 4.23267 1.33467 4.2 1.428 4.2H2.73C2.83267 4.2 2.912 4.23267 2.968 4.298C3.03333 4.354 3.066 4.43333 3.066 4.536V12.334H7.504C7.60667 12.334 7.69067 12.3667 7.756 12.432C7.82133 12.4973 7.854 12.5813 7.854 12.684V13.664C7.854 13.7667 7.82133 13.8507 7.756 13.916C7.69067 13.972 7.60667 14 7.504 14H1.428ZM9.54909 14C9.45576 14 9.37643 13.9673 9.31109 13.902C9.24576 13.8367 9.21309 13.7573 9.21309 13.664V4.536C9.21309 4.43333 9.24576 4.354 9.31109 4.298C9.37643 4.23267 9.45576 4.2 9.54909 4.2H10.8651C10.9678 4.2 11.0471 4.23267 11.1031 4.298C11.1684 4.354 11.2011 4.43333 11.2011 4.536V13.664C11.2011 13.7573 11.1684 13.8367 11.1031 13.902C11.0471 13.9673 10.9678 14 10.8651 14H9.54909ZM16.2527 14C15.982 14 15.8047 13.8693 15.7207 13.608L12.7247 4.62L12.6967 4.494C12.6967 4.41 12.7247 4.34 12.7807 4.284C12.8367 4.228 12.9067 4.2 12.9907 4.2H14.2227C14.344 4.2 14.4374 4.23267 14.5027 4.298C14.5774 4.354 14.6287 4.424 14.6567 4.508L17.0227 11.718L19.3887 4.508C19.4074 4.43333 19.454 4.36333 19.5287 4.298C19.6034 4.23267 19.7014 4.2 19.8227 4.2H21.0547C21.1294 4.2 21.1947 4.228 21.2507 4.284C21.316 4.34 21.3487 4.41 21.3487 4.494L21.3207 4.62L18.3247 13.608C18.2407 13.8693 18.0634 14 17.7927 14H16.2527ZM23.1663 14C23.0729 14 22.9936 13.9673 22.9283 13.902C22.8629 13.8367 22.8303 13.7573 22.8303 13.664V4.55C22.8303 4.44733 22.8583 4.36333 22.9143 4.298C22.9796 4.23267 23.0636 4.2 23.1663 4.2H29.3263C29.4289 4.2 29.5129 4.23267 29.5783 4.298C29.6436 4.36333 29.6763 4.44733 29.6763 4.55V5.474C29.6763 5.57667 29.6436 5.66067 29.5783 5.726C29.5129 5.782 29.4289 5.81 29.3263 5.81H24.7203V8.288H29.0183C29.1209 8.288 29.2049 8.32067 29.2703 8.386C29.3356 8.442 29.3683 8.52133 29.3683 8.624V9.492C29.3683 9.59467 29.3356 9.67867 29.2703 9.744C29.2049 9.8 29.1209 9.828 29.0183 9.828H24.7203V12.39H29.4383C29.5409 12.39 29.6249 12.4227 29.6903 12.488C29.7556 12.5533 29.7883 12.6373 29.7883 12.74V13.664C29.7883 13.7667 29.7556 13.8507 29.6903 13.916C29.6249 13.972 29.5409 14 29.4383 14H23.1663Z" fill="#043E44"/>
<circle cx="35" cy="2" r="2" fill="#DC3A3A"/>
</svg>
