<svg width="16" height="20" viewBox="0 0 16 20" fill="none" xmlns="http://www.w3.org/2000/svg">
<path fill-rule="evenodd" clip-rule="evenodd" d="M1.96364 7.98194C1.96364 4.65819 4.65807 1.96376 7.98182 1.96376C11.3056 1.96376 14 4.65819 14 7.98194C14 10.1296 12.9691 12.2079 11.6436 13.9762C10.3298 15.7291 8.80366 17.0748 7.98182 17.7408C7.15998 17.0748 5.6338 15.7291 4.31999 13.9762C2.99458 12.2079 1.96364 10.1296 1.96364 7.98194ZM7.98182 0.00012207C3.57358 0.00012207 0 3.5737 0 7.98194C0 10.7394 1.30816 13.2319 2.74872 15.1539C4.19894 17.0888 5.86302 18.5516 6.74956 19.2696C7.47207 19.8548 8.49157 19.8548 9.21408 19.2696C10.1006 18.5516 11.7647 17.0888 13.2149 15.1539C14.6555 13.2319 15.9636 10.7394 15.9636 7.98194C15.9636 3.5737 12.3901 0.00012207 7.98182 0.00012207ZM5.96364 7.98194C5.96364 6.86733 6.86721 5.96376 7.98182 5.96376C9.09643 5.96376 10 6.86733 10 7.98194C10 9.09655 9.09643 10.0001 7.98182 10.0001C6.86721 10.0001 5.96364 9.09655 5.96364 7.98194ZM7.98182 4.00012C5.78272 4.00012 4 5.78284 4 7.98194C4 10.181 5.78272 11.9638 7.98182 11.9638C10.1809 11.9638 11.9636 10.181 11.9636 7.98194C11.9636 5.78284 10.1809 4.00012 7.98182 4.00012Z" fill="white"/>
</svg>
