<svg width="190" height="55" viewBox="0 0 190 55" fill="none" xmlns="http://www.w3.org/2000/svg">
<path fill-rule="evenodd" clip-rule="evenodd" d="M10.5518 0C15.942 1.92279 18.0321 6.84689 16.8221 14.7723C11.3352 10.8002 8.79253 6.00169 10.5518 0ZM24.9966 7.00244C21.0208 7.4241 18.7598 10.3533 17.6752 15C22.6639 13.7144 25.1044 11.0485 24.9966 7.00244Z" fill="#209041"/>
<path fill-rule="evenodd" clip-rule="evenodd" d="M18.8071 31.8048C20.2081 32.1034 21.8249 32.5901 23.1894 32.8618C24.3411 33.0946 24.285 33.1842 24.5904 31.8645C26.3249 24.5106 22.3909 17.1268 15.809 15.3742C10.6729 14.0097 5.44159 16.4789 2.56113 21.1218C1.79059 22.3668 1.72054 22.2862 2.94221 22.743C4.41045 23.2924 5.90672 23.8 7.38617 24.3314C8.42319 22.9891 9.88079 22.0916 11.4901 21.8046C13.0994 21.5175 14.7518 21.8603 16.1425 22.7697C17.5332 23.6791 18.5684 25.0937 19.0571 26.7526C19.5458 28.4115 19.455 30.2027 18.8015 31.7958L18.8071 31.8048Z" fill="#ED6B06"/>
<path fill-rule="evenodd" clip-rule="evenodd" d="M7.0951 51L20.0344 39.2124H20.0516C21.5004 38.0777 22.704 36.6555 23.5883 35.0335C24.1634 33.9677 24.2295 34.0461 23.1772 33.6715C21.797 33.1836 20.0804 32.6841 18.6714 32.1933C17.847 33.6855 16.511 34.822 14.915 35.389C13.3189 35.9561 11.5727 35.9146 10.0049 35.2723C8.43698 34.6301 7.1555 33.4313 6.40146 31.9016C5.64742 30.3719 5.4728 28.6167 5.91044 26.966C6.08013 26.3228 6.34063 25.7076 6.68392 25.1394C5.26348 24.8112 3.80853 24.4366 2.43409 24.1752C0.832498 23.8848 0.864127 23.7454 0.421317 25.5082C-0.279607 28.2839 -0.102643 31.2116 0.927386 33.8806C1.61173 35.7827 1.57435 35.8408 3.39735 36.4942C5.07945 37.0925 7.06922 37.531 8.44078 38.286C7.07497 38.2483 5.12546 37.6559 3.46923 37.3422C1.60598 36.9879 2.11492 37.1912 2.72738 38.8959L7.0951 51Z" fill="#209041"/>
<path d="M31.1958 36C31.0624 36 30.9491 35.9533 30.8558 35.86C30.7624 35.7667 30.7158 35.6533 30.7158 35.52V22.5C30.7158 22.3533 30.7558 22.2333 30.8358 22.14C30.9291 22.0467 31.0491 22 31.1958 22H36.5558C38.1558 22 39.4158 22.38 40.3358 23.14C41.2558 23.8867 41.7158 24.9867 41.7158 26.44C41.7158 27.8933 41.2558 28.9933 40.3358 29.74C39.4291 30.4733 38.1691 30.84 36.5558 30.84H33.5758V35.52C33.5758 35.6533 33.5291 35.7667 33.4358 35.86C33.3558 35.9533 33.2424 36 33.0958 36H31.1958ZM36.4558 28.62C37.2291 28.62 37.8224 28.44 38.2358 28.08C38.6491 27.7067 38.8558 27.16 38.8558 26.44C38.8558 25.7467 38.6558 25.2067 38.2558 24.82C37.8558 24.42 37.2558 24.22 36.4558 24.22H33.5358V28.62H36.4558ZM51.9594 25.6C52.106 25.6 52.2194 25.6467 52.2994 25.74C52.3927 25.82 52.4394 25.9333 52.4394 26.08V35.52C52.4394 35.6533 52.3927 35.7667 52.2994 35.86C52.2194 35.9533 52.106 36 51.9594 36H50.2594C50.126 36 50.0127 35.9533 49.9194 35.86C49.826 35.7667 49.7794 35.6533 49.7794 35.52V32.46H47.9994L46.0194 35.7C45.8994 35.9 45.7327 36 45.5194 36H43.8594C43.7394 36 43.6394 35.96 43.5594 35.88C43.4794 35.8 43.4394 35.7067 43.4394 35.6C43.4394 35.48 43.4794 35.3733 43.5594 35.28L45.6594 31.98C45.0327 31.7133 44.5594 31.3267 44.2394 30.82C43.9194 30.3 43.7594 29.6867 43.7594 28.98C43.7594 27.86 44.106 27.02 44.7994 26.46C45.506 25.8867 46.5327 25.6 47.8794 25.6H51.9594ZM49.8194 27.5H47.9394C47.3127 27.5 46.8527 27.6133 46.5594 27.84C46.2794 28.0667 46.1394 28.4467 46.1394 28.98C46.1394 29.4733 46.2794 29.86 46.5594 30.14C46.8394 30.42 47.2594 30.56 47.8194 30.56H49.8194V27.5ZM54.7437 38.2C54.6104 38.2 54.4971 38.1533 54.4037 38.06C54.3104 37.98 54.2637 37.8667 54.2637 37.72V34.36C54.2637 34.2267 54.3104 34.1133 54.4037 34.02C54.4971 33.9267 54.6104 33.88 54.7437 33.88H54.9037C55.4237 33.88 55.8037 33.4667 56.0437 32.64C56.2837 31.8133 56.4037 30.5267 56.4037 28.78V26.08C56.4037 25.9333 56.4504 25.82 56.5437 25.74C56.6371 25.6467 56.7504 25.6 56.8837 25.6H64.0037C64.1504 25.6 64.2637 25.6467 64.3437 25.74C64.4371 25.82 64.4837 25.9333 64.4837 26.08V33.86H65.3837C65.5304 33.86 65.6437 33.9067 65.7237 34C65.8171 34.08 65.8637 34.1933 65.8637 34.34V37.72C65.8637 37.8667 65.8171 37.98 65.7237 38.06C65.6437 38.1533 65.5304 38.2 65.3837 38.2H63.7437C63.5971 38.2 63.4771 38.1533 63.3837 38.06C63.2904 37.9667 63.2437 37.8533 63.2437 37.72V36H56.8837V37.72C56.8837 37.8667 56.8371 37.98 56.7437 38.06C56.6637 38.1533 56.5504 38.2 56.4037 38.2H54.7437ZM61.8837 33.86V27.72H58.9237V29.06C58.9237 31.3533 58.6104 32.96 57.9837 33.88L61.8837 33.86ZM72.3023 36.2C70.7423 36.2 69.5357 35.8 68.6823 35C67.829 34.1867 67.369 33.08 67.3023 31.68L67.2823 30.8L67.3023 29.92C67.369 28.5333 67.8357 27.4333 68.7023 26.62C69.569 25.8067 70.769 25.4 72.3023 25.4C73.8357 25.4 75.0357 25.8067 75.9023 26.62C76.769 27.4333 77.2357 28.5333 77.3023 29.92C77.3157 30.08 77.3223 30.3733 77.3223 30.8C77.3223 31.2267 77.3157 31.52 77.3023 31.68C77.2357 33.08 76.7757 34.1867 75.9223 35C75.069 35.8 73.8623 36.2 72.3023 36.2ZM72.3023 34.22C73.009 34.22 73.5557 34 73.9423 33.56C74.329 33.1067 74.5423 32.4467 74.5823 31.58C74.5957 31.4467 74.6023 31.1867 74.6023 30.8C74.6023 30.4133 74.5957 30.1533 74.5823 30.02C74.5423 29.1533 74.329 28.5 73.9423 28.06C73.5557 27.6067 73.009 27.38 72.3023 27.38C71.5957 27.38 71.049 27.6067 70.6623 28.06C70.2757 28.5 70.0623 29.1533 70.0223 30.02L70.0023 30.8L70.0223 31.58C70.0623 32.4467 70.2757 33.1067 70.6623 33.56C71.049 34 71.5957 34.22 72.3023 34.22ZM90.4783 25.6C90.5849 25.6 90.6783 25.64 90.7583 25.72C90.8516 25.8 90.8983 25.8867 90.8983 25.98V35.58C90.8983 35.7 90.8583 35.8 90.7783 35.88C90.6983 35.96 90.5916 36 90.4583 36H88.7383C88.6049 36 88.4983 35.96 88.4183 35.88C88.3516 35.8 88.3183 35.7 88.3183 35.58V29.98L86.1783 33.92C86.0849 34.08 85.9916 34.2 85.8983 34.28C85.8183 34.36 85.6983 34.4 85.5383 34.4H84.8783C84.7316 34.4 84.6116 34.36 84.5183 34.28C84.4249 34.2 84.3383 34.08 84.2583 33.92L82.1183 30.06V35.58C82.1183 35.7 82.0783 35.8 81.9983 35.88C81.9183 35.96 81.8183 36 81.6983 36H79.9783C79.8449 36 79.7383 35.96 79.6583 35.88C79.5783 35.8 79.5383 35.7 79.5383 35.58V25.98C79.5383 25.8867 79.5783 25.8 79.6583 25.72C79.7383 25.64 79.8316 25.6 79.9383 25.6H81.6183C81.8449 25.6 82.0183 25.7133 82.1383 25.94L85.2183 31.54L88.2983 25.94C88.4183 25.7133 88.5916 25.6 88.8183 25.6H90.4783Z" fill="#209041"/>
<path d="M36.032 43.76C36.096 43.76 36.152 43.784 36.2 43.832C36.248 43.872 36.272 43.924 36.272 43.988V49.736C36.272 49.816 36.248 49.88 36.2 49.928C36.152 49.976 36.092 50 36.02 50H35.432C35.352 50 35.288 49.976 35.24 49.928C35.192 49.88 35.168 49.816 35.168 49.736V45.788L33.632 48.692C33.576 48.796 33.52 48.876 33.464 48.932C33.416 48.98 33.34 49.004 33.236 49.004H32.924C32.828 49.004 32.752 48.98 32.696 48.932C32.648 48.884 32.592 48.804 32.528 48.692L31.004 45.86V49.736C31.004 49.816 30.98 49.88 30.932 49.928C30.884 49.976 30.82 50 30.74 50H30.152C30.072 50 30.008 49.976 29.96 49.928C29.912 49.88 29.888 49.816 29.888 49.736V43.988C29.888 43.932 29.912 43.88 29.96 43.832C30.008 43.784 30.064 43.76 30.128 43.76H30.74C30.86 43.76 30.96 43.824 31.04 43.952L33.08 47.768L35.132 43.952C35.196 43.824 35.296 43.76 35.432 43.76H36.032ZM40.5637 50.12C39.7397 50.12 39.0797 49.868 38.5837 49.364C38.0957 48.852 37.8277 48.156 37.7797 47.276L37.7677 46.868L37.7797 46.472C37.8357 45.608 38.1077 44.92 38.5957 44.408C39.0917 43.896 39.7437 43.64 40.5517 43.64C41.4397 43.64 42.1277 43.924 42.6157 44.492C43.1037 45.052 43.3477 45.812 43.3477 46.772V46.976C43.3477 47.056 43.3197 47.124 43.2637 47.18C43.2157 47.228 43.1517 47.252 43.0717 47.252H38.9197V47.36C38.9437 47.88 39.0997 48.324 39.3877 48.692C39.6837 49.052 40.0717 49.232 40.5517 49.232C40.9197 49.232 41.2197 49.16 41.4517 49.016C41.6917 48.864 41.8677 48.708 41.9797 48.548C42.0517 48.452 42.1037 48.396 42.1357 48.38C42.1757 48.356 42.2437 48.344 42.3397 48.344H42.9277C42.9997 48.344 43.0597 48.364 43.1077 48.404C43.1557 48.444 43.1797 48.5 43.1797 48.572C43.1797 48.748 43.0677 48.96 42.8437 49.208C42.6277 49.456 42.3197 49.672 41.9197 49.856C41.5277 50.032 41.0757 50.12 40.5637 50.12ZM42.2077 46.424V46.388C42.2077 45.836 42.0557 45.388 41.7517 45.044C41.4557 44.692 41.0557 44.516 40.5517 44.516C40.0477 44.516 39.6477 44.692 39.3517 45.044C39.0637 45.388 38.9197 45.836 38.9197 46.388V46.424H42.2077ZM47.3025 50.12C46.4465 50.12 45.7745 49.88 45.2865 49.4C44.8065 48.912 44.5505 48.232 44.5185 47.36L44.5065 46.88L44.5185 46.4C44.5505 45.528 44.8065 44.852 45.2865 44.372C45.7745 43.884 46.4465 43.64 47.3025 43.64C47.8785 43.64 48.3665 43.744 48.7665 43.952C49.1665 44.16 49.4625 44.416 49.6545 44.72C49.8545 45.024 49.9625 45.328 49.9785 45.632C49.9865 45.712 49.9625 45.776 49.9065 45.824C49.8505 45.872 49.7825 45.896 49.7025 45.896H49.1265C49.0465 45.896 48.9865 45.88 48.9465 45.848C48.9065 45.816 48.8665 45.752 48.8265 45.656C48.6905 45.272 48.4985 45 48.2505 44.84C48.0025 44.672 47.6905 44.588 47.3145 44.588C46.8185 44.588 46.4225 44.744 46.1265 45.056C45.8385 45.36 45.6825 45.828 45.6585 46.46L45.6465 46.892L45.6585 47.3C45.6825 47.94 45.8385 48.412 46.1265 48.716C46.4145 49.02 46.8105 49.172 47.3145 49.172C47.6905 49.172 48.0025 49.092 48.2505 48.932C48.4985 48.764 48.6905 48.488 48.8265 48.104C48.8665 48.008 48.9065 47.944 48.9465 47.912C48.9865 47.872 49.0465 47.852 49.1265 47.852H49.7025C49.7825 47.852 49.8505 47.88 49.9065 47.936C49.9625 47.984 49.9865 48.048 49.9785 48.128C49.9625 48.424 49.8545 48.728 49.6545 49.04C49.4625 49.344 49.1665 49.6 48.7665 49.808C48.3745 50.016 47.8865 50.12 47.3025 50.12ZM53.3116 50C53.2316 50 53.1636 49.976 53.1076 49.928C53.0596 49.872 53.0356 49.804 53.0356 49.724V44.72H50.9476C50.8676 44.72 50.7996 44.696 50.7436 44.648C50.6956 44.592 50.6716 44.524 50.6716 44.444V44.036C50.6716 43.956 50.6956 43.892 50.7436 43.844C50.7996 43.788 50.8676 43.76 50.9476 43.76H56.2276C56.3076 43.76 56.3716 43.788 56.4196 43.844C56.4756 43.892 56.5036 43.956 56.5036 44.036V44.444C56.5036 44.524 56.4756 44.592 56.4196 44.648C56.3716 44.696 56.3076 44.72 56.2276 44.72H54.1396V49.724C54.1396 49.804 54.1156 49.872 54.0676 49.928C54.0196 49.976 53.9556 50 53.8756 50H53.3116ZM60.1003 50.12C59.2203 50.12 58.5363 49.872 58.0483 49.376C57.5683 48.88 57.3123 48.22 57.2803 47.396L57.2683 46.88L57.2803 46.364C57.3123 45.548 57.5723 44.892 58.0603 44.396C58.5483 43.892 59.2283 43.64 60.1003 43.64C60.9723 43.64 61.6523 43.892 62.1403 44.396C62.6283 44.892 62.8883 45.548 62.9203 46.364C62.9283 46.452 62.9323 46.624 62.9323 46.88C62.9323 47.136 62.9283 47.308 62.9203 47.396C62.8883 48.22 62.6283 48.88 62.1403 49.376C61.6603 49.872 60.9803 50.12 60.1003 50.12ZM60.1003 49.196C60.6043 49.196 61.0003 49.036 61.2883 48.716C61.5843 48.396 61.7443 47.936 61.7683 47.336C61.7763 47.256 61.7803 47.104 61.7803 46.88C61.7803 46.656 61.7763 46.504 61.7683 46.424C61.7443 45.824 61.5843 45.364 61.2883 45.044C61.0003 44.724 60.6043 44.564 60.1003 44.564C59.5963 44.564 59.1963 44.724 58.9003 45.044C58.6043 45.364 58.4483 45.824 58.4323 46.424L58.4202 46.88L58.4323 47.336C58.4483 47.936 58.6043 48.396 58.9003 48.716C59.1963 49.036 59.5963 49.196 60.1003 49.196ZM64.2337 50.9C64.1697 50.9 64.1177 50.876 64.0777 50.828C64.0457 50.78 64.0337 50.72 64.0417 50.648L64.3177 48.932C64.3497 48.7 64.4617 48.584 64.6537 48.584H65.4577C65.5137 48.584 65.5577 48.604 65.5897 48.644C65.6297 48.684 65.6497 48.732 65.6497 48.788C65.6497 48.828 65.6377 48.892 65.6137 48.98L64.9777 50.624C64.9377 50.72 64.8937 50.788 64.8457 50.828C64.7977 50.876 64.7257 50.9 64.6297 50.9H64.2337ZM70.5234 50C70.4434 50 70.3754 49.976 70.3194 49.928C70.2714 49.872 70.2474 49.804 70.2474 49.724V44.036C70.2474 43.956 70.2714 43.892 70.3194 43.844C70.3754 43.788 70.4434 43.76 70.5234 43.76H74.1114C74.1914 43.76 74.2554 43.788 74.3034 43.844C74.3594 43.892 74.3874 43.956 74.3874 44.036V44.444C74.3874 44.524 74.3594 44.592 74.3034 44.648C74.2554 44.696 74.1914 44.72 74.1114 44.72H71.3754V49.724C71.3754 49.804 71.3474 49.872 71.2914 49.928C71.2434 49.976 71.1794 50 71.0994 50H70.5234ZM75.0436 51.32C74.9636 51.32 74.8956 51.292 74.8396 51.236C74.7916 51.188 74.7676 51.124 74.7676 51.044V49.316C74.7676 49.236 74.7916 49.172 74.8396 49.124C74.8956 49.068 74.9636 49.04 75.0436 49.04H75.1036C75.4396 49.032 75.6916 48.752 75.8596 48.2C76.0356 47.648 76.1236 46.772 76.1236 45.572V44.036C76.1236 43.956 76.1476 43.892 76.1956 43.844C76.2516 43.788 76.3196 43.76 76.3996 43.76H80.2276C80.3076 43.76 80.3716 43.788 80.4196 43.844C80.4756 43.892 80.5036 43.956 80.5036 44.036V49.016H81.0676C81.1476 49.016 81.2116 49.044 81.2596 49.1C81.3156 49.148 81.3436 49.212 81.3436 49.292V51.044C81.3436 51.124 81.3156 51.188 81.2596 51.236C81.2116 51.292 81.1476 51.32 81.0676 51.32H80.5036C80.4236 51.32 80.3556 51.292 80.2996 51.236C80.2516 51.188 80.2276 51.124 80.2276 51.044V50H75.8836V51.044C75.8836 51.124 75.8556 51.188 75.7996 51.236C75.7516 51.292 75.6876 51.32 75.6076 51.32H75.0436ZM79.3876 49.016V44.72H77.2156V45.704C77.2156 47.304 76.9876 48.416 76.5316 49.04L79.3876 49.016ZM85.0949 50.12C84.2709 50.12 83.6109 49.868 83.1149 49.364C82.6269 48.852 82.3589 48.156 82.3109 47.276L82.2989 46.868L82.3109 46.472C82.3669 45.608 82.6389 44.92 83.1269 44.408C83.6229 43.896 84.2749 43.64 85.0829 43.64C85.9709 43.64 86.6589 43.924 87.1469 44.492C87.6349 45.052 87.8789 45.812 87.8789 46.772V46.976C87.8789 47.056 87.8509 47.124 87.7949 47.18C87.7469 47.228 87.6829 47.252 87.6029 47.252H83.4509V47.36C83.4749 47.88 83.6309 48.324 83.9189 48.692C84.2149 49.052 84.6029 49.232 85.0829 49.232C85.4509 49.232 85.7509 49.16 85.9829 49.016C86.2229 48.864 86.3989 48.708 86.5109 48.548C86.5829 48.452 86.6349 48.396 86.6669 48.38C86.7069 48.356 86.7749 48.344 86.8709 48.344H87.4589C87.5309 48.344 87.5909 48.364 87.6389 48.404C87.6869 48.444 87.7109 48.5 87.7109 48.572C87.7109 48.748 87.5989 48.96 87.3749 49.208C87.1589 49.456 86.8509 49.672 86.4509 49.856C86.0589 50.032 85.6069 50.12 85.0949 50.12ZM86.7389 46.424V46.388C86.7389 45.836 86.5869 45.388 86.2829 45.044C85.9869 44.692 85.5869 44.516 85.0829 44.516C84.5789 44.516 84.1789 44.692 83.8829 45.044C83.5949 45.388 83.4509 45.836 83.4509 46.388V46.424H86.7389ZM92.5312 50C92.4512 50 92.3832 49.976 92.3272 49.928C92.2792 49.872 92.2552 49.804 92.2552 49.724V44.036C92.2552 43.956 92.2792 43.892 92.3272 43.844C92.3832 43.788 92.4512 43.76 92.5312 43.76H97.2952C97.3752 43.76 97.4392 43.788 97.4872 43.844C97.5432 43.892 97.5712 43.956 97.5712 44.036V49.724C97.5712 49.804 97.5432 49.872 97.4872 49.928C97.4392 49.976 97.3752 50 97.2952 50H96.7192C96.6392 50 96.5752 49.976 96.5272 49.928C96.4792 49.872 96.4552 49.804 96.4552 49.724V44.72H93.3832V49.724C93.3832 49.804 93.3552 49.872 93.2992 49.928C93.2512 49.976 93.1872 50 93.1072 50H92.5312ZM101.913 50.12C101.033 50.12 100.349 49.872 99.8608 49.376C99.3808 48.88 99.1248 48.22 99.0928 47.396L99.0808 46.88L99.0928 46.364C99.1248 45.548 99.3848 44.892 99.8728 44.396C100.361 43.892 101.041 43.64 101.913 43.64C102.785 43.64 103.465 43.892 103.953 44.396C104.441 44.892 104.701 45.548 104.733 46.364C104.741 46.452 104.745 46.624 104.745 46.88C104.745 47.136 104.741 47.308 104.733 47.396C104.701 48.22 104.441 48.88 103.953 49.376C103.473 49.872 102.793 50.12 101.913 50.12ZM101.913 49.196C102.417 49.196 102.813 49.036 103.101 48.716C103.397 48.396 103.557 47.936 103.581 47.336C103.589 47.256 103.593 47.104 103.593 46.88C103.593 46.656 103.589 46.504 103.581 46.424C103.557 45.824 103.397 45.364 103.101 45.044C102.813 44.724 102.417 44.564 101.913 44.564C101.409 44.564 101.009 44.724 100.713 45.044C100.417 45.364 100.261 45.824 100.245 46.424L100.233 46.88L100.245 47.336C100.261 47.936 100.417 48.396 100.713 48.716C101.009 49.036 101.409 49.196 101.913 49.196ZM105.842 50C105.762 50 105.694 49.972 105.638 49.916C105.582 49.86 105.554 49.792 105.554 49.712V49.268C105.554 49.188 105.578 49.124 105.626 49.076C105.674 49.028 105.734 49.004 105.806 49.004C106.19 48.988 106.474 48.716 106.658 48.188C106.85 47.652 106.946 46.78 106.946 45.572V44.036C106.946 43.956 106.97 43.892 107.018 43.844C107.074 43.788 107.142 43.76 107.222 43.76H111.038C111.118 43.76 111.182 43.788 111.23 43.844C111.286 43.892 111.314 43.956 111.314 44.036V49.724C111.314 49.804 111.286 49.872 111.23 49.928C111.182 49.976 111.118 50 111.038 50H110.462C110.382 50 110.318 49.976 110.27 49.928C110.222 49.872 110.198 49.804 110.198 49.724V44.72H108.038V45.704C108.038 47.232 107.862 48.332 107.51 49.004C107.158 49.668 106.602 50 105.842 50ZM115.599 50.12C114.775 50.12 114.115 49.868 113.619 49.364C113.131 48.852 112.863 48.156 112.815 47.276L112.803 46.868L112.815 46.472C112.871 45.608 113.143 44.92 113.631 44.408C114.127 43.896 114.779 43.64 115.587 43.64C116.475 43.64 117.163 43.924 117.651 44.492C118.139 45.052 118.383 45.812 118.383 46.772V46.976C118.383 47.056 118.355 47.124 118.299 47.18C118.251 47.228 118.187 47.252 118.107 47.252H113.955V47.36C113.979 47.88 114.135 48.324 114.423 48.692C114.719 49.052 115.107 49.232 115.587 49.232C115.955 49.232 116.255 49.16 116.487 49.016C116.727 48.864 116.903 48.708 117.015 48.548C117.087 48.452 117.139 48.396 117.171 48.38C117.211 48.356 117.279 48.344 117.375 48.344H117.963C118.035 48.344 118.095 48.364 118.143 48.404C118.191 48.444 118.215 48.5 118.215 48.572C118.215 48.748 118.103 48.96 117.879 49.208C117.663 49.456 117.355 49.672 116.955 49.856C116.563 50.032 116.111 50.12 115.599 50.12ZM117.243 46.424V46.388C117.243 45.836 117.091 45.388 116.787 45.044C116.491 44.692 116.091 44.516 115.587 44.516C115.083 44.516 114.683 44.692 114.387 45.044C114.099 45.388 113.955 45.836 113.955 46.388V46.424H117.243ZM121.99 50.12C121.406 50.12 120.922 50.028 120.538 49.844C120.162 49.66 119.886 49.436 119.71 49.172C119.542 48.908 119.454 48.648 119.446 48.392V48.368C119.446 48.304 119.47 48.252 119.518 48.212C119.566 48.172 119.622 48.152 119.686 48.152H120.25C120.394 48.152 120.49 48.228 120.538 48.38C120.626 48.684 120.798 48.9 121.054 49.028C121.318 49.148 121.662 49.208 122.086 49.208C122.494 49.208 122.83 49.124 123.094 48.956C123.358 48.788 123.49 48.54 123.49 48.212C123.49 47.876 123.394 47.628 123.202 47.468C123.018 47.3 122.73 47.216 122.338 47.216H121.678C121.606 47.216 121.546 47.192 121.498 47.144C121.45 47.096 121.426 47.032 121.426 46.952V46.628C121.426 46.548 121.45 46.484 121.498 46.436C121.546 46.388 121.606 46.364 121.678 46.364H122.266C122.946 46.364 123.286 46.096 123.286 45.56C123.286 45.272 123.182 45.032 122.974 44.84C122.774 44.648 122.446 44.552 121.99 44.552C121.55 44.552 121.23 44.628 121.03 44.78C120.838 44.924 120.698 45.156 120.61 45.476C120.578 45.556 120.538 45.616 120.49 45.656C120.45 45.688 120.39 45.704 120.31 45.704H119.77C119.698 45.704 119.638 45.684 119.59 45.644C119.542 45.596 119.518 45.54 119.518 45.476C119.526 45.148 119.622 44.844 119.806 44.564C119.99 44.284 120.266 44.06 120.634 43.892C121.002 43.724 121.454 43.64 121.99 43.64C122.55 43.64 123.01 43.728 123.37 43.904C123.73 44.08 123.99 44.3 124.15 44.564C124.31 44.828 124.39 45.104 124.39 45.392C124.39 45.72 124.334 45.988 124.222 46.196C124.118 46.396 123.926 46.564 123.646 46.7C123.99 46.828 124.234 47.028 124.378 47.3C124.53 47.572 124.606 47.904 124.606 48.296C124.606 48.88 124.366 49.332 123.886 49.652C123.406 49.964 122.774 50.12 121.99 50.12ZM126.234 50C126.154 50 126.086 49.976 126.03 49.928C125.982 49.872 125.958 49.804 125.958 49.724V44.036C125.958 43.956 125.982 43.892 126.03 43.844C126.086 43.788 126.154 43.76 126.234 43.76H126.81C126.89 43.76 126.954 43.788 127.002 43.844C127.058 43.892 127.086 43.956 127.086 44.036V46.34H130.35V44.036C130.35 43.956 130.374 43.892 130.422 43.844C130.478 43.788 130.546 43.76 130.626 43.76H131.19C131.27 43.76 131.334 43.788 131.382 43.844C131.438 43.892 131.466 43.956 131.466 44.036V49.724C131.466 49.804 131.438 49.872 131.382 49.928C131.334 49.976 131.27 50 131.19 50H130.626C130.546 50 130.478 49.976 130.422 49.928C130.374 49.872 130.35 49.804 130.35 49.724V47.3H127.086V49.724C127.086 49.804 127.058 49.872 127.002 49.928C126.954 49.976 126.89 50 126.81 50H126.234ZM135.827 50.12C134.947 50.12 134.263 49.872 133.775 49.376C133.295 48.88 133.039 48.22 133.007 47.396L132.995 46.88L133.007 46.364C133.039 45.548 133.299 44.892 133.787 44.396C134.275 43.892 134.955 43.64 135.827 43.64C136.699 43.64 137.379 43.892 137.867 44.396C138.355 44.892 138.615 45.548 138.647 46.364C138.655 46.452 138.659 46.624 138.659 46.88C138.659 47.136 138.655 47.308 138.647 47.396C138.615 48.22 138.355 48.88 137.867 49.376C137.387 49.872 136.707 50.12 135.827 50.12ZM135.827 49.196C136.331 49.196 136.727 49.036 137.015 48.716C137.311 48.396 137.471 47.936 137.495 47.336C137.503 47.256 137.507 47.104 137.507 46.88C137.507 46.656 137.503 46.504 137.495 46.424C137.471 45.824 137.311 45.364 137.015 45.044C136.727 44.724 136.331 44.564 135.827 44.564C135.323 44.564 134.923 44.724 134.627 45.044C134.331 45.364 134.175 45.824 134.159 46.424L134.147 46.88L134.159 47.336C134.175 47.936 134.331 48.396 134.627 48.716C134.923 49.036 135.323 49.196 135.827 49.196ZM142.657 50.12C141.833 50.12 141.173 49.868 140.677 49.364C140.189 48.852 139.921 48.156 139.873 47.276L139.861 46.868L139.873 46.472C139.929 45.608 140.201 44.92 140.689 44.408C141.185 43.896 141.837 43.64 142.645 43.64C143.533 43.64 144.221 43.924 144.709 44.492C145.197 45.052 145.441 45.812 145.441 46.772V46.976C145.441 47.056 145.413 47.124 145.357 47.18C145.309 47.228 145.245 47.252 145.165 47.252H141.013V47.36C141.037 47.88 141.193 48.324 141.481 48.692C141.777 49.052 142.165 49.232 142.645 49.232C143.013 49.232 143.313 49.16 143.545 49.016C143.785 48.864 143.961 48.708 144.073 48.548C144.145 48.452 144.197 48.396 144.229 48.38C144.269 48.356 144.337 48.344 144.433 48.344H145.021C145.093 48.344 145.153 48.364 145.201 48.404C145.249 48.444 145.273 48.5 145.273 48.572C145.273 48.748 145.161 48.96 144.937 49.208C144.721 49.456 144.413 49.672 144.013 49.856C143.621 50.032 143.169 50.12 142.657 50.12ZM144.301 46.424V46.388C144.301 45.836 144.149 45.388 143.845 45.044C143.549 44.692 143.149 44.516 142.645 44.516C142.141 44.516 141.741 44.692 141.445 45.044C141.157 45.388 141.013 45.836 141.013 46.388V46.424H144.301ZM150.094 50C150.014 50 149.946 49.976 149.89 49.928C149.842 49.872 149.818 49.804 149.818 49.724V44.036C149.818 43.956 149.842 43.892 149.89 43.844C149.946 43.788 150.014 43.76 150.094 43.76H152.59C153.326 43.76 153.886 43.912 154.27 44.216C154.662 44.512 154.858 44.92 154.858 45.44C154.858 45.784 154.794 46.052 154.666 46.244C154.538 46.428 154.342 46.588 154.078 46.724C154.366 46.844 154.59 47.044 154.75 47.324C154.918 47.604 155.002 47.904 155.002 48.224C155.002 48.8 154.798 49.24 154.39 49.544C153.99 49.848 153.422 50 152.686 50H150.094ZM152.518 46.412C152.91 46.412 153.218 46.328 153.442 46.16C153.666 45.992 153.778 45.756 153.778 45.452C153.778 45.156 153.67 44.948 153.454 44.828C153.238 44.7 152.926 44.636 152.518 44.636H150.922V46.412H152.518ZM152.59 49.124C152.99 49.124 153.302 49.048 153.526 48.896C153.758 48.744 153.874 48.52 153.874 48.224C153.874 47.904 153.77 47.672 153.562 47.528C153.354 47.376 153.03 47.3 152.59 47.3H150.922V49.124H152.59ZM161.752 49.652C161.792 49.7 161.812 49.752 161.812 49.808C161.812 49.864 161.788 49.912 161.74 49.952C161.7 49.984 161.644 50 161.572 50H160.84C160.712 50 160.608 49.94 160.528 49.82L158.788 47.312H157.66V49.724C157.66 49.804 157.632 49.872 157.576 49.928C157.528 49.976 157.464 50 157.384 50H156.82C156.74 50 156.672 49.976 156.616 49.928C156.568 49.872 156.544 49.804 156.544 49.724V44.036C156.544 43.956 156.568 43.892 156.616 43.844C156.672 43.788 156.74 43.76 156.82 43.76H157.384C157.464 43.76 157.528 43.788 157.576 43.844C157.632 43.892 157.66 43.956 157.66 44.036V46.34H158.764L160.372 43.94C160.468 43.82 160.576 43.76 160.696 43.76H161.32C161.392 43.76 161.452 43.78 161.5 43.82C161.548 43.852 161.572 43.896 161.572 43.952C161.572 43.992 161.552 44.04 161.512 44.096L159.724 46.748L161.752 49.652ZM168.102 43.76C168.166 43.76 168.222 43.784 168.27 43.832C168.318 43.88 168.342 43.936 168.342 44C168.342 44.056 168.322 44.128 168.282 44.216L166.002 49.616L165.894 49.856C165.686 50.36 165.494 50.776 165.318 51.104C165.142 51.432 164.922 51.708 164.658 51.932C164.394 52.164 164.082 52.28 163.722 52.28H163.266C163.186 52.28 163.118 52.256 163.062 52.208C163.014 52.16 162.99 52.092 162.99 52.004V51.596C162.99 51.516 163.014 51.448 163.062 51.392C163.118 51.344 163.186 51.32 163.266 51.32H163.578C163.754 51.32 163.898 51.284 164.01 51.212C164.122 51.148 164.222 51.036 164.31 50.876C164.406 50.716 164.522 50.472 164.658 50.144L164.862 49.652L162.51 44.216C162.47 44.112 162.45 44.044 162.45 44.012C162.458 43.94 162.486 43.88 162.534 43.832C162.582 43.784 162.638 43.76 162.702 43.76H163.266C163.402 43.76 163.502 43.828 163.566 43.964L165.402 48.368L167.262 43.964C167.318 43.828 167.418 43.76 167.562 43.76H168.102ZM171.861 50.12C171.005 50.12 170.333 49.88 169.845 49.4C169.365 48.912 169.109 48.232 169.077 47.36L169.065 46.88L169.077 46.4C169.109 45.528 169.365 44.852 169.845 44.372C170.333 43.884 171.005 43.64 171.861 43.64C172.437 43.64 172.925 43.744 173.325 43.952C173.725 44.16 174.021 44.416 174.213 44.72C174.413 45.024 174.521 45.328 174.537 45.632C174.545 45.712 174.521 45.776 174.465 45.824C174.409 45.872 174.341 45.896 174.261 45.896H173.685C173.605 45.896 173.545 45.88 173.505 45.848C173.465 45.816 173.425 45.752 173.385 45.656C173.249 45.272 173.057 45 172.809 44.84C172.561 44.672 172.249 44.588 171.873 44.588C171.377 44.588 170.981 44.744 170.685 45.056C170.397 45.36 170.241 45.828 170.217 46.46L170.205 46.892L170.217 47.3C170.241 47.94 170.397 48.412 170.685 48.716C170.973 49.02 171.369 49.172 171.873 49.172C172.249 49.172 172.561 49.092 172.809 48.932C173.057 48.764 173.249 48.488 173.385 48.104C173.425 48.008 173.465 47.944 173.505 47.912C173.545 47.872 173.605 47.852 173.685 47.852H174.261C174.341 47.852 174.409 47.88 174.465 47.936C174.521 47.984 174.545 48.048 174.537 48.128C174.521 48.424 174.413 48.728 174.213 49.04C174.021 49.344 173.725 49.6 173.325 49.808C172.933 50.016 172.445 50.12 171.861 50.12ZM176.238 50C176.158 50 176.09 49.976 176.034 49.928C175.986 49.872 175.962 49.804 175.962 49.724V44.036C175.962 43.956 175.986 43.892 176.034 43.844C176.09 43.788 176.158 43.76 176.238 43.76H176.814C176.894 43.76 176.958 43.788 177.006 43.844C177.062 43.892 177.09 43.956 177.09 44.036V46.34H180.354V44.036C180.354 43.956 180.378 43.892 180.426 43.844C180.482 43.788 180.55 43.76 180.63 43.76H181.194C181.274 43.76 181.338 43.788 181.386 43.844C181.442 43.892 181.47 43.956 181.47 44.036V49.724C181.47 49.804 181.442 49.872 181.386 49.928C181.338 49.976 181.274 50 181.194 50H180.63C180.55 50 180.482 49.976 180.426 49.928C180.378 49.872 180.354 49.804 180.354 49.724V47.3H177.09V49.724C177.09 49.804 177.062 49.872 177.006 49.928C176.958 49.976 176.894 50 176.814 50H176.238ZM185.831 50.12C184.951 50.12 184.267 49.872 183.779 49.376C183.299 48.88 183.043 48.22 183.011 47.396L182.999 46.88L183.011 46.364C183.043 45.548 183.303 44.892 183.791 44.396C184.279 43.892 184.959 43.64 185.831 43.64C186.703 43.64 187.383 43.892 187.871 44.396C188.359 44.892 188.619 45.548 188.651 46.364C188.659 46.452 188.663 46.624 188.663 46.88C188.663 47.136 188.659 47.308 188.651 47.396C188.619 48.22 188.359 48.88 187.871 49.376C187.391 49.872 186.711 50.12 185.831 50.12ZM185.831 49.196C186.335 49.196 186.731 49.036 187.019 48.716C187.315 48.396 187.475 47.936 187.499 47.336C187.507 47.256 187.511 47.104 187.511 46.88C187.511 46.656 187.507 46.504 187.499 46.424C187.475 45.824 187.315 45.364 187.019 45.044C186.731 44.724 186.335 44.564 185.831 44.564C185.327 44.564 184.927 44.724 184.631 45.044C184.335 45.364 184.179 45.824 184.163 46.424L184.151 46.88L184.163 47.336C184.179 47.936 184.335 48.396 184.631 48.716C184.927 49.036 185.327 49.196 185.831 49.196Z" fill="#209041"/>
</svg>
