<svg width="40" height="33" viewBox="0 0 40 33" fill="none" xmlns="http://www.w3.org/2000/svg">
<path d="M25.5607 23.4938H14.8627V3.57617H25.5607V23.4938Z" fill="#6C6BBD"/>
<path d="M15.5433 13.5354C15.5433 9.50056 17.3675 5.89807 20.212 3.57647C18.125 1.8793 15.5124 0.870605 12.6523 0.870605C5.89638 0.870605 0.423584 6.5385 0.423584 13.5354C0.423584 20.5322 5.89638 26.2 12.6523 26.2C15.5124 26.2 18.125 25.1913 20.212 23.4942C17.3675 21.1726 15.5433 17.5861 15.5433 13.5354Z" fill="#D32011"/>
<path d="M40 13.5349C40 20.5317 34.5279 26.1995 27.7719 26.1995C24.9116 26.1995 22.2991 25.1908 20.2117 23.4937C23.0566 21.1721 24.8809 17.5696 24.8809 13.5349C24.8809 9.50007 23.0566 5.89758 20.2117 3.57598C22.2991 1.87881 24.9116 0.870117 27.7719 0.870117C34.5279 0.870117 40 6.53802 40 13.5349Z" fill="#0099DF"/>
<path d="M29.179 29.1297C29.3179 29.1297 29.519 29.1617 29.6893 29.2258L29.4729 29.9143C29.3179 29.8502 29.179 29.8342 29.024 29.8342C28.5604 29.8342 28.3286 30.1384 28.3286 30.6988V32.5721H27.6333V29.2098H28.3286V29.6261C28.5143 29.3219 28.7769 29.1297 29.179 29.1297ZM26.5665 29.8823H25.4069V31.4033C25.4069 31.7395 25.5151 31.9637 25.8704 31.9637C26.0562 31.9637 26.2879 31.8996 26.489 31.7716L26.6901 32.396C26.4737 32.5561 26.1176 32.6522 25.809 32.6522C24.974 32.6522 24.6801 32.1878 24.6801 31.4033V29.8663H24.0155V29.2098H24.6801V28.1851H25.3915V29.2098H26.5504V29.8823H26.5665ZM17.5223 30.6028C17.5995 30.1225 17.8778 29.7862 18.388 29.7862C18.8363 29.7862 19.13 30.0744 19.2074 30.6028H17.5223ZM19.9494 30.891C19.9494 29.8502 19.3156 29.1297 18.4035 29.1297C17.445 29.1297 16.7802 29.8502 16.7802 30.891C16.7802 31.9637 17.4758 32.6522 18.4498 32.6522C18.9445 32.6522 19.3929 32.5241 19.7794 32.1878L19.4392 31.6434C19.1609 31.8676 18.8209 31.9957 18.4962 31.9957C18.0479 31.9957 17.6305 31.7716 17.5223 31.1792H19.9339C19.9494 31.0831 19.9494 30.987 19.9494 30.891ZM23.0569 30.0744C22.8558 29.9463 22.4537 29.7862 22.0523 29.7862C21.6655 29.7862 21.4337 29.9303 21.4337 30.1864C21.4337 30.4107 21.6808 30.4746 21.9901 30.5227L22.3301 30.5707C23.0415 30.6828 23.459 30.987 23.459 31.5795C23.459 32.2199 22.918 32.6842 21.9748 32.6842C21.4491 32.6842 20.9541 32.5401 20.568 32.2519L20.908 31.6755C21.1398 31.8676 21.4951 32.0277 21.9901 32.0277C22.4691 32.0277 22.7323 31.8836 22.7323 31.6114C22.7323 31.4193 22.5466 31.3233 22.1605 31.2592L21.8198 31.2111C21.0937 31.0991 20.6916 30.7629 20.6916 30.2185C20.6916 29.546 21.2173 29.1458 22.0362 29.1458C22.5466 29.1458 23.0262 29.2578 23.3662 29.498L23.0569 30.0744ZM31.7607 29.8182C31.6218 29.8182 31.4822 29.8502 31.3586 29.8982C31.235 29.9463 31.1268 30.0264 31.034 30.1225C30.9411 30.2185 30.8643 30.3305 30.8175 30.4587C30.7715 30.5867 30.74 30.7308 30.74 30.891C30.74 31.0511 30.7715 31.1952 30.8175 31.3233C30.8643 31.4513 30.9411 31.5634 31.034 31.6595C31.1268 31.7555 31.235 31.8356 31.3586 31.8836C31.4822 31.9317 31.6218 31.9637 31.7607 31.9637C31.8997 31.9637 32.0393 31.9317 32.1629 31.8836C32.2864 31.8356 32.3947 31.7555 32.4875 31.6595C32.5804 31.5634 32.6572 31.4513 32.7039 31.3233C32.75 31.1952 32.7807 31.0511 32.7807 30.891C32.7807 30.7308 32.75 30.5867 32.7039 30.4587C32.6572 30.3305 32.5804 30.2185 32.4875 30.1225C32.3947 30.0264 32.2864 29.9463 32.1629 29.8982C32.0547 29.8502 31.915 29.8182 31.7607 29.8182ZM31.7607 29.1297C32.0079 29.1297 32.2397 29.1778 32.4561 29.2738C32.6725 29.3699 32.8582 29.482 33.0132 29.6421C33.1675 29.8022 33.2911 29.9943 33.3839 30.2025C33.4768 30.4266 33.5229 30.6508 33.5229 30.907C33.5229 31.1631 33.4768 31.4033 33.3839 31.6114C33.2911 31.8196 33.1675 32.0117 33.0132 32.1718C32.8582 32.3319 32.6725 32.46 32.4561 32.5401C32.2397 32.6362 32.0079 32.6681 31.7607 32.6681C31.5136 32.6681 31.2811 32.6201 31.0647 32.5401C30.8483 32.444 30.6633 32.3319 30.5083 32.1718C30.354 32.0117 30.2304 31.8196 30.1375 31.6114C30.0447 31.3873 29.9986 31.1631 29.9986 30.907C29.9986 30.6508 30.0447 30.4106 30.1375 30.2025C30.2304 29.9943 30.354 29.8022 30.5083 29.6421C30.6633 29.482 30.8483 29.3539 31.0647 29.2738C31.2811 29.1617 31.5136 29.1297 31.7607 29.1297ZM13.3944 30.891C13.3944 30.2985 13.7655 29.8182 14.3839 29.8182C14.9713 29.8182 15.3578 30.2825 15.3578 30.891C15.3578 31.4993 14.9559 31.9637 14.3839 31.9637C13.7809 31.9637 13.3944 31.4834 13.3944 30.891ZM16.0381 30.891V29.2098H15.3269V29.6261C15.0951 29.3219 14.7704 29.1297 14.3066 29.1297C13.3944 29.1297 12.6833 29.8663 12.6833 30.891C12.6833 31.9157 13.3944 32.6522 14.3066 32.6522C14.7704 32.6522 15.1105 32.4601 15.3269 32.1558V32.5721H16.0381V30.891ZM12.0494 32.5721V30.4587C12.0494 29.6581 11.5547 29.1297 10.7663 29.1297C10.3489 29.1297 9.91604 29.2578 9.62226 29.7222C9.40583 29.3539 9.05027 29.1297 8.55556 29.1297C8.21542 29.1297 7.87535 29.2418 7.59707 29.6261V29.2098H6.88586V32.5721H7.59707V30.7148C7.59707 30.1384 7.90621 29.8182 8.38549 29.8182C8.84927 29.8182 9.09662 30.1384 9.09662 30.6988V32.5721H9.80783V30.7148C9.80783 30.1384 10.1325 29.8182 10.5963 29.8182C11.0755 29.8182 11.3074 30.1384 11.3074 30.6988V32.5721H12.0494Z" fill="white"/>
</svg>
