<svg width="174" height="166" viewBox="0 0 174 166" fill="none" xmlns="http://www.w3.org/2000/svg">
<mask id="mask0_7744_165179" style="mask-type:alpha" maskUnits="userSpaceOnUse" x="0" y="0" width="174" height="166">
<rect width="174" height="166" rx="3.48705" fill="#F7F7F7"/>
</mask>
<g mask="url(#mask0_7744_165179)">
<path d="M-8.72364 179.676L-11.3171 122.142H-7.30901L-1.17893 131.574L0.707251 133.46L10.1381 136.054L20.9837 138.412L42.439 143.364L120.008 164.821H134.39L130.618 183.921L-8.72364 179.676Z" fill="#ED6B06"/>
<path d="M119.582 83.6079C119.48 82.5086 118.94 81.4834 118.238 80.627C116.541 78.5494 112.781 77.6053 108.949 77.2169C106.605 76.9818 106.045 73.8144 108.18 72.8271C113.017 70.587 117.933 67.9902 119.467 65.4811C123.014 59.6792 117.635 52.3682 110.991 53.8983C105.728 55.1091 100.865 58.0824 97.6614 62.4207C102.369 53.1292 107.077 43.8399 111.783 34.5485C112.742 32.6576 113.312 30.564 113.228 28.4459C112.944 21.4496 106.747 20.5507 102.658 22.6843C100.038 24.0533 98.1098 26.4288 96.3723 28.8184C89.7241 37.9566 84.6924 48.2608 81.5761 59.1157C82.8809 55.1044 82.8687 50.7349 81.7291 46.6738C79.9272 40.2501 71.5136 39.0418 68.0669 44.7477C62.4312 54.077 60.2072 65.4875 62.2714 76.2132C61.2602 71.9575 60.1489 67.5041 56.6612 64.5764C55.2956 63.4287 53.5896 62.6814 51.8065 62.5977C46.4081 62.3498 44.2314 67.3356 44.8001 71.5523C45.2148 74.6152 46.7961 77.3839 48.344 80.0619C54.6956 91.0454 61.0457 102.027 67.3969 113.01C70.5381 100.779 82.8474 91.5646 95.5195 91.9598C100.366 92.1121 105.195 93.5068 110.007 92.9126C114.909 92.3054 120.044 88.5707 119.582 83.6079Z" fill="#209041"/>
<path d="M106.169 85.2681C97.9742 82.2046 87.7376 82.9028 79.8454 87.2744C82.0983 84.0348 84.6959 81.0347 87.481 78.2447C93.909 71.8041 101.48 68.0916 109.386 63.8949C109.73 63.7118 109.49 63.2043 109.131 63.2891C100.935 65.1668 93.3432 70.6512 87.2371 76.2047C83.2304 79.8506 79.0961 84.5107 76.0396 89.5576C76.1891 89.1102 76.3277 88.6562 76.4827 88.2103C78.7514 81.7102 81.2744 75.299 83.9599 68.9592C88.9902 57.0894 95.5412 45.9975 100.815 34.2726C100.894 34.0965 100.67 33.9641 100.557 34.1216C93.1102 44.3911 87.7624 56.6433 82.6414 68.1875C80.2251 73.635 77.9936 79.1658 75.87 84.735C74.9824 87.0654 74.0409 89.4483 73.1414 91.8504C73.0277 87.9207 72.765 83.9774 72.6477 80.1321C72.4133 72.4965 72.0939 64.8714 71.7346 57.2409C71.7204 56.9322 71.2548 56.9319 71.2517 57.2439C71.202 64.3344 71.1703 71.4154 71.2367 78.5053C71.2867 83.9068 71.0616 89.4988 71.2882 94.9867C71.2719 95.0118 71.2515 95.0327 71.2352 95.0579C71.0755 95.2979 71.152 95.5363 71.3131 95.7024C71.3324 96.0911 71.364 96.4752 71.3887 96.8638C71.2935 97.1638 71.2125 97.466 71.1207 97.767C68.6457 89.216 61.498 80.1651 54.3761 75.6621C54.1106 75.4944 53.8227 75.873 54.0432 76.0883C57.834 79.8327 61.477 83.3181 64.486 87.77C67.1094 91.65 68.5198 95.9367 70.4319 100.128C70.1775 101.086 69.9448 102.043 69.7574 103.002C69.5895 103.858 70.8859 104.538 71.2715 103.635C71.5294 103.028 71.7659 102.41 72.0014 101.79C72.315 102.077 72.8904 101.953 72.9398 101.392C73.0148 100.575 73.0679 99.7496 73.1077 98.923C73.1921 98.8749 73.281 98.8354 73.3396 98.7356C74.7552 96.3251 75.9323 93.8081 77.2781 91.3657C85.5572 85.265 95.3285 82.689 105.988 85.9454C106.428 86.0802 106.585 85.4244 106.169 85.2681Z" fill="#F7F7F7"/>
<path d="M133.312 169.714C138.814 152.064 131.887 131.049 118.408 117.641C102.703 102.016 80.2334 95.0719 58.246 92.1854C43.4698 90.2469 27.9841 89.9721 14.1851 95.5469C-1.22669 101.771 -8.20307 114.185 -13.0064 128.249C-13.2403 128.935 -13.4519 129.633 -13.675 130.325L133.312 169.714Z" fill="#ED6B06"/>
<path d="M118.976 124.345C105.31 120.472 90.6943 118.25 76.7177 115.648C76.4882 115.605 76.3924 115.935 76.6237 115.999C90.307 119.772 104.4 124.157 118.358 126.652C119.859 126.921 120.486 124.772 118.976 124.345Z" fill="#F7F7F7"/>
<path d="M36.6422 122.208C24.8271 118.956 12.6353 114.703 0.438823 113.286C-0.710697 113.153 -0.755375 114.834 0.198015 115.175C11.6708 119.272 24.4575 120.816 36.4004 123.11C36.9888 123.224 37.2325 122.37 36.6422 122.208Z" fill="#F7F7F7"/>
<path d="M103.354 143.652C87.8614 137.99 70.8969 135.414 54.8583 131.637C54.6452 131.588 54.5615 131.9 54.7712 131.962C70.549 136.713 86.5282 142.966 102.776 145.809C104.206 146.06 104.717 144.15 103.354 143.652Z" fill="#F7F7F7"/>
<path d="M54.4543 157.892C44.271 154.17 33.1198 152.477 22.5773 149.994C22.4373 149.962 22.3822 150.168 22.5201 150.208C32.8911 153.331 43.3946 157.441 54.0745 159.31C55.0144 159.475 55.3507 158.219 54.4543 157.892Z" fill="#F7F7F7"/>
<path d="M123.391 161.175C120.147 159.966 116.713 159.479 113.344 158.74C112.932 158.65 112.774 159.239 113.176 159.367C116.463 160.411 119.68 161.709 123.095 162.279C123.826 162.403 124.085 161.436 123.391 161.175Z" fill="#F7F7F7"/>
<path d="M38.2281 139.583C25.8003 136.175 13.2873 131.245 0.456415 129.65C-0.887498 129.481 -0.914599 131.439 0.176103 131.846C12.1902 136.317 25.5273 137.676 38.0193 140.363C38.5265 140.471 38.7329 139.722 38.2281 139.583Z" fill="#F7F7F7"/>
</g>
</svg>
