<svg width="40" height="33" viewBox="0 0 40 33" fill="none" xmlns="http://www.w3.org/2000/svg">
<path d="M7.61476 32.609V30.4927C7.61476 29.6911 7.1349 29.162 6.32988 29.162C5.92741 29.162 5.47848 29.3063 5.16887 29.7553C4.93666 29.3705 4.59609 29.162 4.08523 29.162C3.74467 29.162 3.4041 29.2743 3.14093 29.6591V29.2422H2.42883V32.609H3.14093V30.7493C3.14093 30.156 3.45054 29.8675 3.91496 29.8675C4.37936 29.8675 4.62705 30.1881 4.62705 30.7493V32.609H5.33915V30.7493C5.33915 30.156 5.67972 29.8675 6.11317 29.8675C6.5931 29.8675 6.82531 30.1881 6.82531 30.7493V32.609H7.61476ZM18.1879 29.2262H17.0269V28.2001H16.3148V29.2262H15.6646V29.8996H16.3148V31.4547C16.3148 32.2243 16.6244 32.6892 17.4294 32.6892C17.739 32.6892 18.0795 32.5769 18.3118 32.4487L18.1105 31.8074C17.9093 31.9517 17.6616 31.9838 17.4913 31.9838C17.1507 31.9838 17.0114 31.7753 17.0114 31.4226V29.9156H18.1724V29.2262H18.1879ZM24.2408 29.162C23.8383 29.162 23.5597 29.3705 23.3893 29.6591V29.2422H22.6773V32.609H23.3893V30.7012C23.3893 30.14 23.6215 29.8194 24.0705 29.8194C24.2098 29.8194 24.3801 29.8515 24.5194 29.8835L24.7206 29.1781C24.5813 29.162 24.3801 29.162 24.2408 29.162ZM15.0918 29.5148C14.7513 29.2743 14.2714 29.162 13.7605 29.162C12.94 29.162 12.3982 29.5789 12.3982 30.2522C12.3982 30.8134 12.8007 31.134 13.5128 31.2302L13.8534 31.2623C14.2249 31.3264 14.4262 31.4386 14.4262 31.615C14.4262 31.8555 14.1475 32.0319 13.6831 32.0319C13.2187 32.0319 12.8317 31.8555 12.5995 31.6791L12.2589 32.2403C12.6304 32.5288 13.1413 32.6571 13.6522 32.6571C14.5965 32.6571 15.1538 32.1922 15.1538 31.5669C15.1538 30.9737 14.7048 30.6531 14.0391 30.5408L13.6986 30.5088C13.389 30.4767 13.1567 30.3965 13.1567 30.1881C13.1567 29.9476 13.389 29.8034 13.776 29.8034C14.1785 29.8034 14.5965 29.9797 14.7977 30.0919L15.0918 29.5148ZM34.0554 29.162C33.6529 29.162 33.3743 29.3705 33.2039 29.6591V29.2422H32.4919V32.609H33.2039V30.7012C33.2039 30.14 33.4361 29.8194 33.8851 29.8194C34.0244 29.8194 34.1947 29.8515 34.334 29.8835L34.5352 29.1781C34.3959 29.162 34.1947 29.162 34.0554 29.162ZM24.9529 30.9256C24.9529 31.9517 25.634 32.6892 26.6866 32.6892C27.1666 32.6892 27.5072 32.5769 27.8477 32.3044L27.5072 31.7112C27.2285 31.9196 26.9653 32.0319 26.6557 32.0319C26.083 32.0319 25.665 31.615 25.665 30.9417C25.665 30.3003 26.0675 29.8835 26.6557 29.8515C26.9653 29.8515 27.2285 29.9637 27.5072 30.1721L27.8477 29.5789C27.5072 29.2903 27.1666 29.1941 26.6866 29.1941C25.634 29.162 24.9529 29.8995 24.9529 30.9256ZM31.5475 30.9256V29.2422H30.8354V29.6591C30.6032 29.3384 30.2626 29.162 29.8137 29.162C28.9004 29.162 28.1883 29.8995 28.1883 30.9256C28.1883 31.9517 28.9004 32.6892 29.8137 32.6892C30.2936 32.6892 30.6342 32.5128 30.8354 32.1922V32.609H31.5475V30.9256ZM28.9314 30.9256C28.9314 30.3324 29.3028 29.8354 29.9221 29.8354C30.4948 29.8354 30.9128 30.3003 30.9128 30.9256C30.9128 31.5188 30.5103 32.0158 29.9221 32.0158C29.3028 31.9838 28.9314 31.5188 28.9314 30.9256ZM20.4017 29.162C19.4573 29.162 18.7762 29.8675 18.7762 30.9256C18.7762 31.9838 19.4573 32.6892 20.448 32.6892C20.928 32.6892 21.3924 32.5449 21.7794 32.2243L21.4388 31.6952C21.1602 31.9036 20.8196 32.0479 20.4945 32.0479C20.0456 32.0479 19.6121 31.8395 19.5038 31.2462H21.9187V30.9577C21.9342 29.8675 21.315 29.162 20.4017 29.162ZM20.4017 29.7873C20.8506 29.7873 21.1447 30.0759 21.2221 30.5889H19.5193C19.5811 30.14 19.8908 29.7873 20.4017 29.7873ZM38.1112 30.9256V27.8955H37.3992V29.6591C37.1669 29.3384 36.8263 29.162 36.3774 29.162C35.4641 29.162 34.752 29.8995 34.752 30.9256C34.752 31.9517 35.4641 32.6892 36.3774 32.6892C36.8574 32.6892 37.1979 32.5128 37.3992 32.1922V32.609H38.1112V30.9256ZM35.4796 30.9256C35.4796 30.3324 35.8511 29.8354 36.4703 29.8354C37.0431 29.8354 37.4611 30.3003 37.4611 30.9256C37.4611 31.5188 37.0586 32.0158 36.4703 32.0158C35.8666 31.9838 35.4796 31.5188 35.4796 30.9256ZM11.6242 30.9256V29.2422H10.9121V29.6591C10.6799 29.3384 10.3393 29.162 9.89043 29.162C8.97709 29.162 8.26495 29.8995 8.26495 30.9256C8.26495 31.9517 8.97709 32.6892 9.89043 32.6892C10.3703 32.6892 10.7109 32.5128 10.9121 32.1922V32.609H11.6242V30.9256ZM8.97709 30.9256C8.97709 30.3324 9.34855 29.8354 9.96781 29.8354C10.5405 29.8354 10.9585 30.3003 10.9585 30.9256C10.9585 31.5188 10.5561 32.0158 9.96781 32.0158C9.34855 31.9838 8.97709 31.5188 8.97709 30.9256Z" fill="white"/>
<path d="M25.5721 3.57422H14.8596V23.5025H25.5721V3.57422Z" fill="#FF5F00"/>
<path d="M15.5411 13.5313C15.5411 9.49113 17.3833 5.8999 20.2008 3.5752C18.1264 1.8918 15.5102 0.865723 12.6463 0.865723C5.88135 0.865723 0.416748 6.52517 0.416748 13.5313C0.416748 20.5375 5.88135 26.1969 12.6463 26.1969C15.4947 26.1969 18.1109 25.1708 20.1853 23.4875C17.3678 21.2109 15.5411 17.5875 15.5411 13.5313Z" fill="#EB001B"/>
<path d="M39.9994 13.5303C39.9994 20.5365 34.5348 26.196 27.7698 26.196C24.9214 26.196 22.3052 25.1699 20.2308 23.4865C23.0792 21.1618 24.8904 17.5705 24.8904 13.5303C24.8904 9.49015 23.0482 5.89892 20.2308 3.57423C22.3052 1.89082 24.9214 0.864746 27.7698 0.864746C34.5348 0.864746 39.9994 6.57228 39.9994 13.5303Z" fill="#F79E1B"/>
</svg>
