<svg width="12" height="15" viewBox="0 0 12 15" fill="none" xmlns="http://www.w3.org/2000/svg">
<path d="M4.5578 7.51505C4.97558 8.09696 5.34859 8.79823 5.61717 9.52935L6.93019 9.63379C7.33305 8.27601 7.87019 7.30616 8.4521 6.54521C9.3175 6.87346 10.4216 6.85854 11.0632 6.30648C12.1673 5.35155 12.0629 2.45694 11.7794 0.785822C11.7346 0.487408 11.3467 0.397884 11.1677 0.636615C9.63083 2.60615 6.93019 2.87472 6.97495 4.76965C6.98987 5.1725 7.06447 5.42616 7.34797 5.72457C8.48194 4.27726 9.8994 3.7998 9.97401 3.76996C9.98893 3.76996 10.0038 3.75504 10.0038 3.75504C9.8248 3.8744 9.18321 4.42647 8.49686 5.26203C7.6613 6.14235 6.87051 7.2614 6.2886 9.03696C6.03495 8.41029 5.72161 7.81347 5.36352 7.29124C4.64732 6.0379 3.70732 5.18743 3.51335 5.0233C3.52827 5.0233 3.52827 5.0233 3.54319 5.03822C3.60287 5.06806 4.79653 5.51568 5.73653 6.78394C5.99018 6.53029 6.06479 6.3214 6.07971 5.97822C6.16923 4.35187 3.85653 4.05345 2.60319 2.32265C2.45398 2.11376 2.12573 2.18837 2.06604 2.44202C1.78255 3.85948 1.6035 6.33632 2.52858 7.1868C3.02097 7.63442 3.84161 7.6941 4.5578 7.51505Z" fill="#043E44"/>
<path d="M10.317 11.1408C10.0037 11.2452 9.48143 11.3795 8.91444 11.4989C8.70555 11.8271 8.33254 12.0957 7.76555 12.1852C7.63127 12.2151 7.48206 12.2151 7.31793 12.2151C6.91507 12.2151 6.45253 12.1703 5.93031 12.1106C5.90047 12.1106 5.8557 12.1106 5.82586 12.0957C5.7065 12.0808 5.58713 11.9913 5.58713 11.857C5.57221 11.6928 5.7065 11.5735 5.87062 11.5884C5.91539 11.5884 5.94523 11.6033 5.98999 11.6033C6.66142 11.6779 7.28809 11.7376 7.69095 11.6779C8.43698 11.5586 8.64587 11.1109 8.61603 10.723C8.58619 10.4097 8.36238 10.1113 7.98936 10.1262C7.46714 10.156 6.85539 10.0963 6.25856 10.0516C5.57221 9.99189 4.87094 9.96205 4.37856 10.0068C3.82649 10.0665 2.69252 10.4544 1.69283 11.1109C1.20045 11.4392 0.648384 11.8122 0.320129 12.0509C0.156001 12.1703 0.111239 12.409 0.245526 12.5732L1.64807 14.4681C1.76744 14.6322 1.99125 14.6621 2.15537 14.5427L2.69252 14.1398C2.8268 14.0503 2.99093 14.0205 3.14014 14.0652C4.10998 14.3935 5.13951 14.6173 5.81094 14.6621C7.28809 14.7665 10.1529 13.0656 10.9884 12.5135C11.7941 11.9614 11.2272 10.8125 10.317 11.1408Z" fill="#043E44"/>
</svg>
