<svg width="48" height="32" viewBox="0 0 48 32" fill="none" xmlns="http://www.w3.org/2000/svg">
<path fill-rule="evenodd" clip-rule="evenodd" d="M14.3113 9.92061C14.7542 9.38941 15.0532 8.651 14.9719 7.915C14.3318 7.9406 13.5578 8.3382 13.1019 8.8678C12.6891 9.3374 12.3318 10.0894 12.4305 10.811C13.1423 10.8654 13.8683 10.4518 14.3113 9.92061ZM16.1504 14.591C16.1362 12.999 17.4628 12.2334 17.5242 12.1958C16.7758 11.119 15.6152 10.9694 15.2018 10.9526C14.2126 10.8558 13.2697 11.5294 12.7698 11.5294C12.2679 11.5294 11.4959 10.9678 10.6739 10.9854C9.59576 11.0006 8.60176 11.6054 8.0468 12.5598C6.9296 14.487 7.76312 17.3326 8.85384 18.8918C9.38792 19.655 10.0228 20.5118 10.8595 20.4814C11.6649 20.4502 11.967 19.9654 12.9402 19.9654C13.9112 19.9646 14.1859 20.4798 15.034 20.4654C15.8994 20.447 16.4487 19.6862 16.9794 18.9198C17.5895 18.0358 17.8424 17.1774 17.8552 17.135C17.8378 17.123 16.1696 16.4934 16.1504 14.591ZM26.4543 9.91981C26.1317 9.61261 25.7156 9.37261 25.2176 9.20781C24.724 9.04541 24.1312 8.96301 23.4558 8.96301C23.0233 8.96141 22.591 8.98301 22.1609 9.02941C21.8023 9.06941 21.4449 9.119 21.0892 9.1782L20.9849 9.19661V20.3846H22.0174V15.671C22.3651 15.7302 22.7632 15.7614 23.2023 15.7614C23.7867 15.7614 24.3342 15.687 24.8297 15.5422C25.3062 15.4078 25.7503 15.179 26.1342 14.8686C26.5041 14.563 26.8015 14.1806 27.0056 13.7486C27.2168 13.3054 27.3242 12.7838 27.3242 12.1974C27.3242 11.7126 27.2468 11.2758 27.0958 10.9006C26.9498 10.535 26.7316 10.2014 26.4543 9.91981ZM25.5055 14.1934C24.9756 14.6334 24.2254 14.8558 23.2734 14.8558C23.0116 14.8558 22.7639 14.8446 22.5366 14.8238C22.3618 14.8078 22.1884 14.779 22.018 14.7374V9.9798C22.1544 9.955 22.3234 9.93181 22.5218 9.91021C22.7734 9.88381 23.0762 9.8702 23.4232 9.8702C23.8216 9.867 24.2186 9.9174 24.603 10.0222C24.9305 10.111 25.2382 10.2606 25.5102 10.4614C25.7578 10.6518 25.9525 10.8982 26.0875 11.1958C26.2238 11.4974 26.2924 11.8574 26.2924 12.2646C26.2918 13.1102 26.0267 13.759 25.5055 14.1934ZM33.4961 19.3374C33.4846 19.0206 33.4801 18.703 33.4801 18.3862V15.2758C33.4801 14.907 33.4422 14.531 33.3686 14.1574C33.2978 13.7854 33.1522 13.4318 32.941 13.1166C32.7311 12.8046 32.4372 12.5478 32.0697 12.351C31.7023 12.1558 31.2248 12.0566 30.6494 12.0566C30.2293 12.0566 29.8191 12.111 29.4318 12.2174C29.0249 12.3334 28.6403 12.5142 28.2928 12.7534L28.2089 12.811L28.5578 13.6182L28.684 13.5342C28.9593 13.3518 29.2605 13.2094 29.5777 13.1134C29.8982 13.015 30.2321 12.9638 30.5679 12.963C30.9982 12.963 31.342 13.0406 31.587 13.1926C31.8361 13.3462 32.0236 13.5366 32.1446 13.7598C32.2708 13.9894 32.3533 14.2342 32.3898 14.4878C32.4289 14.7518 32.4474 14.9886 32.4474 15.191V15.2806C30.9169 15.2742 29.7217 15.5262 28.9279 16.0318C28.095 16.563 27.6726 17.3182 27.6726 18.2774C27.6726 18.5534 27.7225 18.8318 27.8211 19.1062C27.9208 19.3846 28.0726 19.6334 28.271 19.8462C28.4709 20.0614 28.7288 20.2366 29.0374 20.3678C29.3446 20.4998 29.7063 20.567 30.1102 20.567C30.6821 20.5758 31.245 20.4238 31.7324 20.1278C31.945 19.9982 32.1338 19.8502 32.2952 19.691C32.3638 19.623 32.4295 19.5518 32.4917 19.4774H32.5314L32.6262 20.3854H33.6214L33.5939 20.2398C33.5393 19.9414 33.5066 19.6398 33.4961 19.3374ZM32.4474 17.7438C32.4474 17.8526 32.4212 18.0022 32.3713 18.1814C32.3044 18.3758 32.2109 18.559 32.0934 18.7278C31.832 19.107 31.452 19.3902 31.0123 19.5358C30.7453 19.6222 30.4654 19.6646 30.1845 19.6606C29.9991 19.6606 29.8153 19.6294 29.6404 19.5686C29.4706 19.5102 29.3148 19.4182 29.1827 19.2974C29.0441 19.1678 28.9347 19.011 28.8613 18.8374C28.78 18.6518 28.739 18.4214 28.739 18.1542C28.739 17.7166 28.8581 17.3614 29.0918 17.1014C29.3434 16.8254 29.6593 16.6134 30.0124 16.4846C30.4122 16.3358 30.8306 16.2414 31.2561 16.2038C31.6521 16.1662 32.0497 16.1486 32.4474 16.1526V17.7438ZM40.5038 12.2382L38.5769 17.4214C38.4566 17.7342 38.3445 18.0494 38.2421 18.3566C38.1922 18.5094 38.1447 18.655 38.098 18.7926H38.0616C38.0135 18.6414 37.9643 18.4902 37.9142 18.3398C37.8146 18.0358 37.707 17.7374 37.5968 17.4534L35.5362 12.2382H34.4346L37.3823 19.7358C37.4598 19.9166 37.4713 19.999 37.4713 20.0326C37.4713 20.043 37.4676 20.1046 37.3811 20.3326C37.2201 20.739 37.0101 21.1254 36.7558 21.4822C36.5194 21.8006 36.3031 22.059 36.1103 22.2494C35.8863 22.471 35.6552 22.6526 35.4203 22.7902C35.1803 22.9302 34.9614 23.0438 34.7673 23.1294L34.6561 23.1782L35.0151 24.0414L35.1291 23.9998C35.2224 23.9646 35.398 23.8854 35.6642 23.7574C35.933 23.6262 36.2308 23.4182 36.5482 23.1374C36.8297 22.8918 37.0795 22.6134 37.2922 22.3078C37.5097 21.999 37.7274 21.6366 37.9413 21.2334C38.1524 20.831 38.3637 20.3742 38.5698 19.8734C38.776 19.3694 38.9974 18.807 39.2261 18.2022L41.6067 12.2382H40.5038ZM43.7014 1.43317L44.1892 1.43364C44.323 1.43436 44.4567 1.4362 44.5911 1.4394C44.835 1.4458 45.1218 1.45901 45.3978 1.50845C45.6533 1.55405 45.8696 1.62461 46.0789 1.72941C46.502 1.94141 46.8458 2.2822 47.0602 2.7006C47.1665 2.9078 47.237 3.12141 47.283 3.37501C47.3322 3.64541 47.3464 3.92941 47.3522 4.17261C47.3559 4.30381 47.3579 4.4366 47.3586 4.5702C47.3598 4.7302 47.3598 4.89181 47.3598 5.05261V26.947C47.3598 27.1078 47.3598 27.2686 47.3586 27.4318C47.3581 27.5638 47.3558 27.6958 47.3522 27.827C47.3458 28.0702 47.3322 28.3542 47.283 28.6262C47.2431 28.8606 47.168 29.087 47.0602 29.299C46.8446 29.7174 46.5005 30.0574 46.0776 30.271C45.8634 30.3774 45.6343 30.4518 45.3978 30.4918C45.1315 30.5342 44.8626 30.5566 44.5931 30.5598C44.4586 30.563 44.3242 30.5654 44.1878 30.5654C44.0258 30.5662 43.8627 30.5662 43.7007 30.5662H4.29279C4.13208 30.5662 3.97153 30.5662 3.80897 30.5654C3.67454 30.5654 3.5401 30.563 3.40888 30.5598C3.13862 30.5566 2.86898 30.5334 2.60226 30.4918C2.36488 30.4526 2.13502 30.3774 1.92038 30.2702C1.71005 30.1646 1.51815 30.0262 1.35206 29.8606C1.1852 29.6966 1.04616 29.5062 0.93968 29.299C0.831368 29.0862 0.756232 28.859 0.716288 28.6246C0.6728 28.3614 0.649448 28.0942 0.646528 27.827C0.643304 27.695 0.641464 27.563 0.640696 27.431L0.640232 27.0446V4.9558L0.640696 4.5702C0.641464 4.4374 0.643304 4.30541 0.646528 4.17261C0.652984 3.93101 0.666352 3.64701 0.716288 3.37341C0.755928 3.13901 0.831208 2.9126 0.93968 2.7006C1.15448 2.2822 1.49818 1.94221 1.92116 1.72941C2.13534 1.62221 2.36472 1.54829 2.60149 1.50917C2.86852 1.46605 3.13832 1.44293 3.40888 1.44005C3.54255 1.43685 3.67638 1.435 3.80958 1.43444L4.29863 1.43317H43.7014ZM43.7014 0.799805H4.29863L3.80636 0.800446C3.66808 0.801006 3.5298 0.803003 3.39152 0.806763C3.08915 0.810763 2.78739 0.837086 2.48886 0.885406C2.19034 0.936126 1.90103 1.03037 1.63046 1.16525C1.08795 1.43973 0.646528 1.8766 0.36936 2.4134C0.232768 2.6806 0.137208 2.96701 0.086352 3.26301C0.037032 3.55821 0.010296 3.8566 0.00645599 4.1558C0.00322399 4.2918 0.00123207 4.42861 0.000616074 4.56541L0 5.05261V26.947L0.000616074 27.435C0.00123207 27.5718 0.00322406 27.7086 0.00706406 27.8446C0.0153601 28.1422 0.033184 28.4422 0.087112 28.7366C0.140888 29.0366 0.229696 29.3142 0.36936 29.5862C0.645304 30.1238 1.08734 30.5614 1.63108 30.8342C1.90564 30.9734 2.18681 31.0606 2.48886 31.1142C2.78662 31.167 3.09007 31.1846 3.39152 31.1926C3.5298 31.1966 3.66746 31.1982 3.80636 31.1982C3.9703 31.1998 4.1347 31.1998 4.29863 31.1998H43.7014C43.8653 31.1998 44.0297 31.1998 44.1937 31.1982C44.3319 31.1982 44.4702 31.1958 44.6085 31.1926C44.9093 31.1846 45.2127 31.167 45.5111 31.1142C45.8095 31.0638 46.0985 30.9694 46.3688 30.8342C46.9126 30.5614 47.3549 30.1246 47.6306 29.5862C47.7708 29.3142 47.8591 29.0366 47.9129 28.7366C47.9666 28.4422 47.984 28.1422 47.9923 27.8446C47.9962 27.7078 47.998 27.571 47.9986 27.435C48 27.2718 48 27.1102 48 26.947V5.05261C48 4.88941 48 4.72781 47.9986 4.56461C47.9982 4.42781 47.996 4.2918 47.9923 4.155C47.9886 3.8558 47.9621 3.55741 47.9129 3.26221C47.8623 2.96701 47.767 2.6806 47.6306 2.4126C47.3539 1.875 46.9122 1.43821 46.3688 1.16461C46.0985 1.02981 45.8095 0.935407 45.5111 0.884607C45.2126 0.836447 44.9109 0.810127 44.6085 0.806207C44.4696 0.802207 44.3311 0.801005 44.1937 0.799805H43.7014Z" fill="white"/>
</svg>
