<svg width="96" height="36" viewBox="0 0 96 36" fill="none" xmlns="http://www.w3.org/2000/svg">
<g clip-path="url(#clip0_11314_10820)">
<path d="M48.2946 18.9051C50.2476 18.9051 51.8397 20.3901 51.8397 22.4367C51.8397 24.4698 50.2476 25.9683 48.2946 25.9683C46.3416 25.9683 44.7495 24.4698 44.7495 22.4367C44.7495 20.3892 46.3416 18.9051 48.2946 18.9051ZM48.2946 24.5769C49.3647 24.5769 50.2881 23.6949 50.2872 22.4367C50.2872 21.1659 49.3647 20.2965 48.2946 20.2965C47.2245 20.2965 46.3011 21.1659 46.3011 22.4367C46.3011 23.694 47.2245 24.5769 48.2946 24.5769ZM40.5627 18.9051C42.5157 18.9051 44.1069 20.3901 44.1078 22.4367C44.1078 24.4698 42.5157 25.9683 40.5627 25.9683C38.6097 25.9683 37.0176 24.4698 37.0176 22.4367C37.0176 20.3892 38.6097 18.9051 40.5627 18.9051ZM40.5627 24.5769C41.6328 24.5769 42.5553 23.6949 42.5553 22.4367C42.5553 21.1659 41.6328 20.2965 40.5627 20.2965C39.4926 20.2965 38.5692 21.1659 38.5692 22.4367C38.5692 23.694 39.4926 24.5769 40.5627 24.5769ZM31.3629 19.9896H31.362H36.4065C36.4605 20.2569 36.4866 20.5782 36.4866 20.9256C36.4866 22.0497 36.1788 23.4411 35.1888 24.4311C34.2258 25.4346 32.9955 25.9692 31.3638 25.9692C28.3407 25.9692 25.7991 23.5077 25.7991 20.4846C25.7991 17.4606 28.3407 15 31.3638 15C33.0351 15 34.2258 15.6561 35.1222 16.512L34.0656 17.5686C33.423 16.9656 32.5536 16.4976 31.3629 16.4976C29.1561 16.4976 27.4308 18.2778 27.4308 20.4846C27.4308 22.6914 29.1561 24.4707 31.3629 24.4707C32.7948 24.4707 33.6111 23.8947 34.1322 23.3745C34.5606 22.9461 34.8414 22.3305 34.9485 21.4881H31.3629V19.9896ZM68.9829 21.1533L69.1431 21.5547L64.4208 23.5077C64.7817 24.216 65.3424 24.5778 66.1326 24.5778C66.9219 24.5778 67.47 24.1908 67.8714 23.6022L69.0756 24.405C68.6877 24.9801 67.7526 25.9701 66.1335 25.9701C64.1274 25.9701 62.6289 24.4176 62.6289 22.4385C62.6289 20.3388 64.14 18.9069 65.9598 18.9069C67.7922 18.9069 68.6886 20.3649 68.9829 21.1533ZM64.1679 22.3305L67.3251 21.0192C67.1505 20.5782 66.6294 20.2704 66.0138 20.2704C65.2245 20.2704 64.1274 20.9652 64.1679 22.3305ZM60.3285 25.755V15.3744H61.881V25.755H60.3285ZM57.7869 19.6953H57.786V19.1211H59.2575V25.4625C59.2575 28.0707 57.7194 29.1408 55.8996 29.1408C54.1878 29.1408 53.1582 27.9906 52.7703 27.0528L54.1212 26.4921C54.3624 27.0672 54.951 27.7494 55.9005 27.7494C57.0651 27.7494 57.7869 27.0267 57.7869 25.6758V25.1673H57.7329C57.3864 25.5957 56.7168 25.9701 55.8744 25.9701C54.1095 25.9701 52.4904 24.4311 52.4904 22.4511C52.4904 20.4594 54.1086 18.9069 55.8744 18.9069C56.7168 18.9069 57.3846 19.2804 57.7329 19.6953H57.7869ZM56.0076 24.5769C57.0642 24.5769 57.894 23.6814 57.894 22.4493C57.894 21.2046 57.0642 20.2956 56.0076 20.2956C54.9375 20.2956 54.0411 21.2046 54.0411 22.4493C54.0411 23.6805 54.9375 24.5769 56.0076 24.5769ZM76.2518 15.3744C77.9692 15.3744 79.6571 16.6182 79.6571 18.5982C79.6571 20.5782 77.9692 21.822 76.2518 21.822H74.0886V25.7541H72.5398V15.3744H76.2518ZM76.2919 20.3775C77.4505 20.3775 78.1083 19.4028 78.1083 18.5991C78.1083 17.7783 77.4505 16.8198 76.2919 16.8198H74.0886V20.3775H76.2919ZM85.8671 18.8871C87.6426 18.8871 89.0179 19.9149 89.0196 21.7581V25.7379H87.5239V24.9369H87.4699C87.1099 25.4832 86.5356 25.9512 85.4932 25.9512C84.1318 25.9512 82.9168 25.0566 82.9168 23.6679C82.9168 22.146 84.4255 21.3306 85.9072 21.3306C86.6428 21.3306 87.2433 21.5718 87.5239 21.732V21.624C87.5108 20.769 86.6959 20.2893 85.8949 20.2893C85.3206 20.2893 84.7724 20.4765 84.4795 21.0507L83.1033 20.4765C83.5836 19.3812 84.7446 18.8871 85.8671 18.8871ZM85.6798 24.5751C86.574 24.5751 87.4012 23.8938 87.5231 22.9326C87.1091 22.7319 86.7884 22.5852 86.1068 22.5852C85.3459 22.5852 84.4648 22.893 84.4648 23.694C84.4648 24.3213 85.1725 24.5751 85.6798 24.5751ZM94.4662 19.1139H96.1885L91.9282 28.9023H90.3123L91.8881 25.4031L89.1243 19.1139H90.7934L92.6368 23.6139H92.6908L94.4662 19.1139ZM80.5121 25.755V15.3744H82.0609V25.755H80.5121ZM26.6892 12.696H26.0763V11.0274H26.5632C26.9943 10.6557 27.2049 10.0212 27.1959 9.1212V6.65791H30.5223V11.0274H31.0785V12.6969H30.4674V11.6403H26.6883V12.6969H26.6892V12.696ZM27.8376 9.1203C27.8475 9.9078 27.6891 10.5441 27.3651 11.0265H29.8833V7.26901H27.8376V9.1203ZM36.0717 10.9959C35.5812 11.499 34.9728 11.751 34.2447 11.751C33.5166 11.751 32.9073 11.499 32.4177 10.995C31.9281 10.4928 31.6833 9.8772 31.6833 9.1491C31.6833 8.4201 31.9272 7.8054 32.4177 7.30231C32.9064 6.79831 33.5157 6.54631 34.2447 6.54631C34.9683 6.54631 35.5758 6.80011 36.0681 7.30591C36.5595 7.8099 36.8052 8.4255 36.8052 9.15C36.8061 9.8772 36.5613 10.4928 36.0717 10.995V10.9959ZM32.892 10.5783C33.261 10.9518 33.7119 11.1381 34.2456 11.1381C34.7551 11.1485 35.2458 10.9455 35.5992 10.5783C35.9673 10.2048 36.1527 9.7278 36.1527 9.1473C36.1527 8.5677 35.9673 8.0916 35.5992 7.7181C35.2456 7.35107 34.7551 7.14817 34.2456 7.15831C33.7119 7.15831 33.2619 7.34461 32.892 7.7181C32.523 8.0916 32.3394 8.5686 32.3394 9.1482C32.3394 9.7278 32.523 10.2048 32.892 10.5783ZM40.0281 11.7501C39.2955 11.7501 38.6808 11.5017 38.184 11.0058C37.6872 10.5099 37.4397 9.8898 37.4397 9.1482C37.4397 8.4057 37.6863 7.7865 38.184 7.29061C38.6799 6.79471 39.2946 6.54541 40.0281 6.54541C40.7796 6.54541 41.3898 6.81541 41.8578 7.35901L41.4123 7.7901C41.0739 7.36711 40.6122 7.15741 40.0281 7.15741C39.4845 7.15741 39.0264 7.34101 38.6538 7.7064C38.2803 8.0736 38.094 8.5524 38.094 9.1464C38.094 9.7404 38.2803 10.2219 38.6538 10.5864C39.0264 10.9536 39.4854 11.1372 40.0281 11.1372C40.6266 11.1372 41.1369 10.896 41.559 10.4145L42.0045 10.86C41.7711 11.138 41.4784 11.3602 41.1477 11.5098C40.7968 11.6716 40.4144 11.7535 40.0281 11.7501ZM44.5929 11.6394H43.9521V7.26991H42.5607V6.65701H45.9843V7.26901H44.5929V11.6394ZM50.3799 6.65701L48.4944 10.86C48.2343 11.4531 47.8473 11.7501 47.3334 11.7501C47.1804 11.7501 47.0157 11.7141 46.8384 11.6385L47.0058 11.0472C47.1129 11.1075 47.2236 11.1372 47.3397 11.1372C47.4882 11.1372 47.6034 11.1093 47.6835 11.0499C47.7645 10.9914 47.8401 10.8861 47.9094 10.7331L48.0903 10.3362L46.4136 6.65521H47.1651L48.3963 9.5163H48.4233L49.6266 6.65611H50.3799V6.65701ZM51.1044 11.6394V6.65791H54.7089V11.6394H54.0681V7.26991H51.7443V11.6394H51.1044ZM55.8501 11.6394V6.65791H56.49V8.7936H58.9803V6.65791H59.6211V11.6394H58.9803V9.3912H56.49V11.6394H55.8501ZM64.8357 10.9959C64.3461 11.499 63.7368 11.751 63.0096 11.751C62.2815 11.751 61.6722 11.499 61.1844 10.995C60.6939 10.4928 60.45 9.8772 60.45 9.1491C60.45 8.4201 60.6939 7.8054 61.1844 7.30231C61.6731 6.79831 62.2815 6.54631 63.0096 6.54631C63.7332 6.54631 64.3407 6.80011 64.833 7.30591C65.3244 7.8099 65.5701 8.4255 65.5701 9.15C65.5701 9.8772 65.3253 10.4928 64.8357 10.995V10.9959ZM61.656 10.5783C62.025 10.9518 62.4759 11.1381 63.0096 11.1381C63.5191 11.1485 64.0098 10.9455 64.3632 10.5783C64.7322 10.2048 64.9167 9.7278 64.9167 9.1473C64.9167 8.5677 64.7313 8.0916 64.3632 7.7181C64.0096 7.35107 63.5191 7.14817 63.0096 7.15831C62.4759 7.15831 62.025 7.34461 61.656 7.7181C61.287 8.0916 61.1034 8.5686 61.1034 9.1482C61.1034 9.7278 61.2879 10.2048 61.656 10.5783ZM68.1873 11.6394V6.65791H69.9882C70.3779 6.65791 70.7154 6.78661 71.0007 7.04401C71.286 7.30231 71.4291 7.6254 71.4291 8.0151C71.4291 8.2518 71.367 8.4606 71.2437 8.6415C71.1217 8.82199 70.9514 8.96452 70.7523 9.0528V9.0798C70.998 9.1626 71.1996 9.3075 71.358 9.5109C71.5146 9.7152 71.5947 9.9519 71.5947 10.221C71.5947 10.6287 71.4444 10.968 71.1456 11.2362C70.8564 11.5015 70.4768 11.646 70.0845 11.6403H68.1873V11.6394ZM68.8272 8.7936H69.99C70.2321 8.7936 70.4256 8.7144 70.5714 8.5533C70.7092 8.41274 70.7875 8.22456 70.7901 8.0277C70.7888 7.83289 70.7128 7.6461 70.5777 7.50571C70.4354 7.34788 70.2303 7.26147 70.0179 7.26991H68.8272V8.7936ZM68.8272 11.0274H70.1151C70.3431 11.0348 70.5626 10.9402 70.7136 10.7691C70.859 10.617 70.941 10.4152 70.9431 10.2048C70.9402 9.99445 70.8553 9.79358 70.7064 9.645C70.5465 9.47474 70.3206 9.38212 70.0872 9.3912H68.8272V11.0274Z" fill="white"/>
<path d="M0.3852 7.10222C0.144 7.35782 0 7.75384 0 8.26864V26.6313C0 27.1452 0.1431 27.5421 0.3852 27.7977L0.4473 27.8571L10.7343 17.5701V17.328L0.4473 7.04102L0.3852 7.10222Z" fill="url(#paint0_linear_11314_10820)"/>
<path d="M14.1608 21.0032L10.7327 17.5724V17.3294L14.1617 13.9004L14.2391 13.9445L18.3008 16.253C19.4609 16.9118 19.4609 17.9918 18.3008 18.6506L14.2391 20.96L14.1608 21.0032Z" fill="url(#paint1_linear_11314_10820)"/>
<path d="M14.239 20.959L10.7317 17.4517L0.383545 27.799C0.766045 28.204 1.39694 28.2535 2.10884 27.8494L14.239 20.959Z" fill="url(#paint2_linear_11314_10820)"/>
<path d="M14.239 13.9445L2.10884 7.05231C1.39694 6.64821 0.766045 6.69772 0.383545 7.10272L10.7308 17.45L14.239 13.9445Z" fill="url(#paint3_linear_11314_10820)"/>
<path opacity="0.2" d="M14.1615 20.8818L2.10958 27.7281C1.43548 28.1106 0.832477 28.0854 0.446377 27.7371L0.384277 27.7992L0.446377 27.8586C0.833377 28.2069 1.43548 28.233 2.10958 27.8496L14.2398 20.9574L14.1615 20.8809V20.8818Z" fill="#209041"/>
<path opacity="0.12" d="M0.3852 27.6796C0.144 27.4249 0 27.028 0 26.5132V26.6347C0 27.1477 0.1431 27.5455 0.3852 27.8011L0.4473 27.7381L0.3852 27.6796Z" fill="#209041"/>
<path opacity="0.12" d="M18.3016 18.5299L14.1616 20.8816L14.239 20.959L18.3007 18.6505C18.8812 18.3202 19.1719 17.8855 19.1719 17.4517C19.1224 17.845 18.8281 18.2311 18.3016 18.5299Z" fill="#209041"/>
<path opacity="0.25" d="M2.1105 7.17469L18.3024 16.3745C18.8289 16.6733 19.1232 17.0585 19.1727 17.4518C19.1727 17.0171 18.8829 16.5824 18.3024 16.253L2.1105 7.05319C0.950399 6.39439 0 6.94159 0 8.26996V8.39146C0 7.06309 0.949499 6.51589 2.1105 7.17469Z" fill="white"/>
</g>
<defs>
<linearGradient id="paint0_linear_11314_10820" x1="6.55126" y1="8.07555" x2="-2.26878" y2="16.8955" gradientUnits="userSpaceOnUse">
<stop stop-color="#00A0FF"/>
<stop offset="0.0066" stop-color="#00A1FF"/>
<stop offset="0.2601" stop-color="#00BEFF"/>
<stop offset="0.5122" stop-color="#00D2FF"/>
<stop offset="0.7604" stop-color="#00DFFF"/>
<stop offset="1" stop-color="#00E3FF"/>
</linearGradient>
<linearGradient id="paint1_linear_11314_10820" x1="19.8127" y1="17.4522" x2="-0.278097" y2="17.4522" gradientUnits="userSpaceOnUse">
<stop stop-color="#FFE000"/>
<stop offset="0.4087" stop-color="#FFBD00"/>
<stop offset="0.7754" stop-color="#FFA500"/>
<stop offset="1" stop-color="#FF9C00"/>
</linearGradient>
<linearGradient id="paint2_linear_11314_10820" x1="12.3337" y1="20.7514" x2="-2.72518" y2="35.8101" gradientUnits="userSpaceOnUse">
<stop stop-color="#FF3A44"/>
<stop offset="1" stop-color="#C31162"/>
</linearGradient>
<linearGradient id="paint3_linear_11314_10820" x1="-2.2214" y1="5.50783" x2="4.50293" y2="12.2322" gradientUnits="userSpaceOnUse">
<stop stop-color="#32A071"/>
<stop offset="0.0685" stop-color="#2DA771"/>
<stop offset="0.4762" stop-color="#15CF74"/>
<stop offset="0.8009" stop-color="#06E775"/>
<stop offset="1" stop-color="#00F076"/>
</linearGradient>
<clipPath id="clip0_11314_10820">
<rect width="96" height="36" fill="white"/>
</clipPath>
</defs>
</svg>
