<svg width="9" height="18" viewBox="0 0 9 18" fill="none" xmlns="http://www.w3.org/2000/svg">
<path fill-rule="evenodd" clip-rule="evenodd" d="M3.72429 0C5.62671 0.678631 6.36439 2.41655 5.93733 5.21375C4.0008 3.81184 3.10338 2.11824 3.72429 0ZM8.82245 2.47145C7.41925 2.62027 6.62122 3.65409 6.23844 5.29412C7.99916 4.84037 8.8605 3.89948 8.82245 2.47145Z" fill="#043E44"/>
<path fill-rule="evenodd" clip-rule="evenodd" d="M6.63798 11.2253C7.13245 11.3306 7.70307 11.5024 8.18468 11.5983C8.59113 11.6805 8.57136 11.7121 8.67915 11.2463C9.2913 8.65084 7.90283 6.0448 5.57981 5.42622C3.76708 4.94464 1.92073 5.81613 0.904102 7.45478C0.632144 7.89421 0.60742 7.86576 1.0386 8.02699C1.5568 8.22089 2.0849 8.40004 2.60706 8.58761C2.97306 8.11383 3.48751 7.79707 4.0555 7.69577C4.62348 7.59447 5.20669 7.71545 5.69753 8.03641C6.18837 8.35736 6.55373 8.85664 6.72621 9.44212C6.89868 10.0276 6.86665 10.6598 6.636 11.2221L6.63798 11.2253Z" fill="#043E44"/>
<path fill-rule="evenodd" clip-rule="evenodd" d="M2.50415 18.0002L7.07095 13.8399H7.07704C7.58838 13.4394 8.01318 12.9374 8.3253 12.3649C8.52826 11.9888 8.55161 12.0165 8.18017 11.8842C7.69305 11.712 7.08719 11.5357 6.58991 11.3625C6.29892 11.8892 5.82743 12.2903 5.26411 12.4904C4.7008 12.6906 4.08449 12.6759 3.53113 12.4492C2.97776 12.2226 2.52547 11.7995 2.25934 11.2596C1.99321 10.7197 1.93158 10.1002 2.08604 9.5176C2.14593 9.29058 2.23787 9.07345 2.35903 8.8729C1.8577 8.75708 1.34419 8.62486 0.859091 8.53261C0.293823 8.43012 0.304986 8.38092 0.1487 9.00307C-0.0986849 9.98273 -0.0362269 11.016 0.327313 11.958C0.568846 12.6294 0.555653 12.6499 1.19906 12.8805C1.79275 13.0916 2.49502 13.2464 2.9791 13.5129C2.49705 13.4996 1.80898 13.2905 1.22443 13.1798C0.566816 13.0547 0.746443 13.1265 0.962605 13.7281L2.50415 18.0002Z" fill="#043E44"/>
</svg>
