<svg width="14" height="18" viewBox="0 0 14 18" fill="none" xmlns="http://www.w3.org/2000/svg">
<path d="M10.6576 0.0765087C10.7677 0.140339 10.8529 0.239622 10.8993 0.358138C10.9457 0.476654 10.9505 0.607397 10.913 0.729009L8.88685 7.31251H12.6252C12.7351 7.31246 12.8426 7.34459 12.9344 7.40493C13.0262 7.46526 13.0983 7.55116 13.1419 7.65202C13.1854 7.75289 13.1985 7.86429 13.1794 7.97249C13.1604 8.08069 13.1101 8.18095 13.0347 8.26088L4.03472 17.8234C3.94764 17.916 3.83176 17.9764 3.70597 17.9947C3.58018 18.013 3.45189 17.9881 3.34203 17.9242C3.23216 17.8603 3.14719 17.761 3.10096 17.6426C3.05474 17.5242 3.04998 17.3936 3.08747 17.2721L5.1136 10.6875H1.37522C1.26536 10.6876 1.15789 10.6554 1.06608 10.5951C0.97427 10.5348 0.902136 10.4489 0.858585 10.348C0.815034 10.2471 0.801972 10.1357 0.821012 10.0275C0.840052 9.91932 0.890359 9.81907 0.965724 9.73913L9.96572 0.176634C10.0527 0.0841577 10.1684 0.0238234 10.294 0.0054408C10.4196 -0.0129418 10.5478 0.0117085 10.6576 0.0753837V0.0765087Z" fill="#ED6B06"/>
</svg>
