<svg width="9" height="14" viewBox="0 0 9 14" fill="none" xmlns="http://www.w3.org/2000/svg">
<path d="M7.15981 0.0559958C7.23989 0.102416 7.30185 0.17462 7.33558 0.26081C7.36932 0.347 7.37282 0.442083 7.34553 0.530524L5.87204 5.31835H8.59076C8.67066 5.31832 8.74881 5.34168 8.81558 5.38556C8.88235 5.42944 8.93481 5.49191 8.96648 5.56526C8.99816 5.63861 9.00766 5.71963 8.99381 5.79832C8.97996 5.87701 8.94338 5.94992 8.88857 6.00805L2.34335 12.9623C2.28002 13.0297 2.19575 13.0736 2.10427 13.0869C2.01278 13.1002 1.91949 13.0822 1.83959 13.0357C1.75969 12.9892 1.69789 12.917 1.66428 12.8309C1.63066 12.7447 1.6272 12.6498 1.65447 12.5615L3.12796 7.77281H0.409239C0.329343 7.77284 0.251185 7.74947 0.184416 7.70559C0.117646 7.66172 0.0651875 7.59925 0.0335152 7.52589C0.00184296 7.45254 -0.00765622 7.37152 0.00619027 7.29284C0.0200368 7.21415 0.0566227 7.14124 0.111432 7.0831L6.65665 0.128811C6.7199 0.0615585 6.80405 0.0176806 6.8954 0.0043119C6.98675 -0.00905675 7.07994 0.00887009 7.15981 0.0551776V0.0559958Z" fill="#ED6B06"/>
</svg>
