<svg width="45" height="16" viewBox="0 0 45 16" fill="none" xmlns="http://www.w3.org/2000/svg">
<path d="M19.8277 15.4572H16.2334L18.4816 1.06055H22.0757L19.8277 15.4572Z" fill="white"/>
<path d="M32.8573 1.4127C32.1483 1.12145 31.0239 0.799805 29.6335 0.799805C26.0839 0.799805 23.5844 2.76012 23.569 5.56269C23.5395 7.63049 25.3586 8.77895 26.7192 9.46844C28.1098 10.173 28.5825 10.6328 28.5825 11.2608C28.5684 12.2252 27.4588 12.6698 26.4239 12.6698C24.9889 12.6698 24.22 12.4406 23.0515 11.904L22.5782 11.674L22.0752 14.9058C22.9182 15.3035 24.4714 15.6565 26.0839 15.6719C29.8553 15.6719 32.3107 13.7419 32.3398 10.7554C32.3542 9.11647 31.3936 7.86068 29.3227 6.83459C28.0655 6.17583 27.2957 5.73165 27.2957 5.05769C27.3104 4.44496 27.9468 3.81736 29.366 3.81736C30.5344 3.78662 31.393 4.07754 32.0433 4.36862L32.3684 4.52147L32.8573 1.4127Z" fill="white"/>
<path d="M37.6348 10.357C37.9307 9.5299 39.0698 6.32892 39.0698 6.32892C39.0548 6.35965 39.3652 5.48658 39.5427 4.9506L39.7939 6.1911C39.7939 6.1911 40.4746 9.63714 40.6224 10.357C40.0606 10.357 38.3447 10.357 37.6348 10.357ZM42.0716 1.06055H39.2913C38.4339 1.06055 37.7826 1.32072 37.4127 2.25503L32.0737 15.4569H35.8452C35.8452 15.4569 36.4661 13.6801 36.5995 13.2974C37.0133 13.2974 40.6821 13.2974 41.2143 13.2974C41.3176 13.8028 41.6432 15.4569 41.6432 15.4569H44.9713L42.0716 1.06055Z" fill="white"/>
<path d="M13.2311 1.06055L9.71105 10.8776L9.32635 8.88668C8.6756 6.58926 6.63458 4.09322 4.35693 2.85206L7.5812 15.4419H11.3821L17.0318 1.06055H13.2311Z" fill="white"/>
<path d="M6.44198 1.06055H0.659017L0.599854 1.35146C5.11092 2.54611 8.09854 5.42592 9.32601 8.88724L8.06887 2.27073C7.86184 1.35122 7.22585 1.09087 6.44198 1.06055Z" fill="white"/>
</svg>
