<svg width="36" height="36" viewBox="0 0 36 36" fill="none" xmlns="http://www.w3.org/2000/svg">
<circle cx="18" cy="18" r="18" fill="white"/>
<g clip-path="url(#clip0_11314_10840)">
<path fill-rule="evenodd" clip-rule="evenodd" d="M17.965 10.9551C14.7764 10.9554 12.5669 10.9656 11.4328 12.035C10.3254 13.1298 10.3148 15.3634 10.3148 18.342C13.7402 18.2422 15.3066 18.1594 16.5559 16.9814C17.7758 15.7751 17.8616 14.2627 17.965 10.9551ZM11.4326 24.8141C10.3252 23.7192 10.3146 21.4857 10.3146 18.507C13.74 18.6068 15.3064 18.6897 16.5557 19.8676C17.7756 21.0739 17.8614 22.5864 17.9648 25.8937C14.7762 25.8937 12.5667 25.8837 11.4326 24.8141ZM18.1358 25.8937C18.2391 22.5864 18.3249 21.0739 19.5449 19.8676C20.7941 18.6897 22.3606 18.6068 25.786 18.507C25.7856 21.4857 25.775 23.7192 24.6676 24.8141C23.5335 25.8837 21.3244 25.8937 18.1358 25.8937ZM18.1358 10.9551C18.2391 14.2627 18.3249 15.7751 19.5449 16.9814C20.7941 18.1594 22.3606 18.2422 25.786 18.342C25.7856 15.3634 25.775 13.1298 24.6676 12.035C23.5335 10.9656 21.3244 10.9554 18.1358 10.9551Z" fill="white"/>
<path fill-rule="evenodd" clip-rule="evenodd" d="M19.5449 19.8676C18.3249 21.0739 18.2391 22.5864 18.1358 25.8937C21.3244 25.8937 23.5335 25.8837 24.6676 24.8141C25.775 23.7192 25.7856 21.4857 25.786 18.507C22.3606 18.6068 20.7941 18.6897 19.5449 19.8676ZM10.3146 18.507C10.3146 21.4857 10.3252 23.7192 11.4326 24.8141C12.5667 25.8837 14.7762 25.8937 17.9648 25.8937C17.8614 22.5864 17.7756 21.0739 16.5557 19.8676C15.3064 18.6897 13.74 18.6068 10.3146 18.507ZM17.965 10.9551C14.7764 10.9554 12.5669 10.9656 11.4328 12.035C10.3254 13.1298 10.3148 15.3634 10.3148 18.342C13.7402 18.2422 15.3066 18.1594 16.5559 16.9814C17.7758 15.7751 17.8616 14.2627 17.965 10.9551ZM19.5449 16.9814C18.3249 15.7751 18.2391 14.2627 18.1358 10.9551C21.3244 10.9554 23.5335 10.9656 24.6676 12.035C25.775 13.1298 25.7856 15.3634 25.786 18.342C22.3606 18.2422 20.7941 18.1594 19.5449 16.9814Z" fill="#209041"/>
</g>
<defs>
<clipPath id="clip0_11314_10840">
<rect width="15.4714" height="14.9388" fill="white" transform="translate(10.3145 10.9551)"/>
</clipPath>
</defs>
</svg>
