<svg width="34" height="19" viewBox="0 0 34 19" fill="none" xmlns="http://www.w3.org/2000/svg">
<path d="M4.312 13.5C4.232 13.5 4.168 13.476 4.12 13.428C4.072 13.38 4.048 13.316 4.048 13.236V6.084L1.9 7.74C1.836 7.78 1.78 7.8 1.732 7.8C1.652 7.8 1.584 7.764 1.528 7.692L1.396 7.524C1.356 7.468 1.336 7.412 1.336 7.356C1.336 7.276 1.372 7.208 1.444 7.152L4 5.184C4.08 5.128 4.184 5.1 4.312 5.1H4.54C4.62 5.1 4.684 5.124 4.732 5.172C4.78 5.22 4.804 5.284 4.804 5.364V13.236C4.804 13.316 4.78 13.38 4.732 13.428C4.684 13.476 4.62 13.5 4.54 13.5H4.312ZM9.47725 13.62C8.46925 13.62 7.74125 13.316 7.29325 12.708C6.85325 12.1 6.62125 11.3 6.59725 10.308L6.58525 9.312L6.59725 8.292C6.62125 7.3 6.85325 6.5 7.29325 5.892C7.74125 5.284 8.46925 4.98 9.47725 4.98C10.4853 4.98 11.2093 5.284 11.6493 5.892C12.0973 6.5 12.3333 7.3 12.3573 8.292C12.3653 8.516 12.3693 8.856 12.3693 9.312C12.3693 9.76 12.3653 10.092 12.3573 10.308C12.3333 11.3 12.0973 12.1 11.6493 12.708C11.2093 13.316 10.4853 13.62 9.47725 13.62ZM9.47725 12.9C10.1653 12.9 10.6853 12.672 11.0373 12.216C11.3973 11.752 11.5853 11.096 11.6013 10.248C11.6093 10.016 11.6133 9.696 11.6133 9.288C11.6133 8.88 11.6093 8.568 11.6013 8.352C11.5853 7.52 11.3973 6.872 11.0373 6.408C10.6853 5.936 10.1653 5.7 9.47725 5.7C8.78925 5.7 8.26525 5.936 7.90525 6.408C7.55325 6.872 7.36925 7.52 7.35325 8.352L7.34125 9.288L7.35325 10.248C7.36925 11.096 7.55325 11.752 7.90525 12.216C8.26525 12.672 8.78925 12.9 9.47725 12.9ZM18.0478 13.5C17.9678 13.5 17.9038 13.476 17.8558 13.428C17.8078 13.38 17.7838 13.316 17.7838 13.236V11.34H13.8238C13.7438 11.34 13.6798 11.316 13.6318 11.268C13.5838 11.22 13.5598 11.156 13.5598 11.076V10.884C13.5598 10.764 13.6038 10.644 13.6918 10.524L17.3398 5.304C17.3798 5.24 17.4398 5.192 17.5198 5.16C17.5998 5.12 17.6878 5.1 17.7838 5.1H18.2758C18.3558 5.1 18.4198 5.124 18.4678 5.172C18.5158 5.22 18.5398 5.284 18.5398 5.364V10.62H19.6318C19.7118 10.62 19.7758 10.644 19.8238 10.692C19.8718 10.74 19.8958 10.804 19.8958 10.884V11.076C19.8958 11.156 19.8718 11.22 19.8238 11.268C19.7758 11.316 19.7118 11.34 19.6318 11.34H18.5398V13.236C18.5398 13.316 18.5158 13.38 18.4678 13.428C18.4198 13.476 18.3558 13.5 18.2758 13.5H18.0478ZM17.7838 10.62V5.952L14.5078 10.62H17.7838ZM25.0503 13.5C24.9703 13.5 24.9063 13.476 24.8583 13.428C24.8103 13.38 24.7863 13.316 24.7863 13.236V11.508H23.8503C23.7703 11.508 23.7063 11.484 23.6583 11.436C23.6103 11.388 23.5863 11.324 23.5863 11.244V11.052C23.5863 10.972 23.6103 10.908 23.6583 10.86C23.7063 10.812 23.7703 10.788 23.8503 10.788H24.7863V10.068H23.8503C23.7703 10.068 23.7063 10.044 23.6583 9.996C23.6103 9.948 23.5863 9.884 23.5863 9.804V9.612C23.5863 9.532 23.6103 9.468 23.6583 9.42C23.7063 9.372 23.7703 9.348 23.8503 9.348H24.7863V5.376C24.7863 5.296 24.8103 5.232 24.8583 5.184C24.9063 5.128 24.9703 5.1 25.0503 5.1H27.9663C28.8223 5.1 29.4943 5.316 29.9823 5.748C30.4783 6.172 30.7263 6.784 30.7263 7.584C30.7263 8.384 30.4783 9 29.9823 9.432C29.4943 9.856 28.8223 10.068 27.9663 10.068H25.5423V10.788H28.1703C28.2503 10.788 28.3143 10.812 28.3623 10.86C28.4103 10.908 28.4343 10.972 28.4343 11.052V11.244C28.4343 11.324 28.4103 11.388 28.3623 11.436C28.3143 11.484 28.2503 11.508 28.1703 11.508H25.5423V13.236C25.5423 13.316 25.5143 13.38 25.4583 13.428C25.4103 13.476 25.3463 13.5 25.2663 13.5H25.0503ZM27.9063 9.348C28.5943 9.348 29.1103 9.2 29.4543 8.904C29.7983 8.6 29.9703 8.16 29.9703 7.584C29.9703 7.008 29.7983 6.572 29.4543 6.276C29.1103 5.972 28.5943 5.82 27.9063 5.82H25.5423V9.348H27.9063Z" fill="#1B1B1B"/>
<path d="M1 14.5L33.5 3.5" stroke="#DC3A3A" stroke-linecap="round"/>
</svg>
