<svg width="43" height="13" viewBox="0 0 43 13" fill="none" xmlns="http://www.w3.org/2000/svg">
<path fill-rule="evenodd" clip-rule="evenodd" d="M30.6943 6.19873V12.9931H34.3386V8.96677H38.4695C40.2079 8.95339 41.6846 7.80327 42.2415 6.19873H30.6943Z" fill="white"/>
<path fill-rule="evenodd" clip-rule="evenodd" d="M30.2075 0.600098C30.4197 3.3773 32.9567 5.57003 36.0553 5.57003C36.0656 5.57003 42.3929 5.57003 42.3929 5.57003C42.4391 5.31539 42.4639 5.05248 42.4639 4.78371C42.4639 2.48316 40.672 0.617117 38.455 0.60018L30.2075 0.600098Z" fill="white"/>
<path fill-rule="evenodd" clip-rule="evenodd" d="M24.8136 5.50394L24.816 5.49765L24.8168 5.49774C24.8543 5.42825 24.9253 5.38132 25.0075 5.38132C25.1263 5.38132 25.2229 5.47931 25.2261 5.60151V12.9307H28.8711V0.600098H25.2261C24.7641 0.616044 24.2424 0.967275 24.0477 1.39848L21.1478 7.84035C21.1406 7.86671 21.1294 7.89125 21.1143 7.91331L21.1135 7.91545V7.91537C21.0696 7.98072 20.9962 8.02361 20.9132 8.02361C20.7792 8.02361 20.6707 7.91091 20.6707 7.77194V0.600098H17.0259V12.9307H20.6707V12.9293C21.1278 12.9045 21.6376 12.5572 21.8291 12.1323L24.8056 5.52054C24.808 5.51492 24.8104 5.50939 24.8136 5.50394Z" fill="white"/>
<path fill-rule="evenodd" clip-rule="evenodd" d="M11.2039 5.71471L9.0737 12.9307H6.45178L4.32034 5.71033C4.29976 5.59474 4.20195 5.50716 4.08436 5.50716C3.95184 5.50716 3.84438 5.61837 3.84438 5.75561C3.84438 5.75668 3.84439 5.75775 3.84447 5.75883L3.84438 12.9307H0.199707V0.600098H3.32806H4.25979C4.93041 0.600098 5.63317 1.13913 5.82919 1.80301L7.6029 7.8116C7.69122 8.11061 7.83434 8.11028 7.92249 7.8116L9.69629 1.80301C9.89246 1.13864 10.595 0.600098 11.2657 0.600098H12.1971H15.3252V12.9307H11.6805V5.75883C11.6805 5.75775 11.6805 5.75668 11.6805 5.75561C11.6805 5.61837 11.5731 5.50716 11.4406 5.50716C11.3215 5.50716 11.2227 5.59697 11.2039 5.71471Z" fill="white"/>
</svg>
